<?xml version="1.0" standalone="no"?>
<!DOCTYPE svg PUBLIC "-//W3C//DTD SVG 20010904//EN"
 "http://www.w3.org/TR/2001/REC-SVG-20010904/DTD/svg10.dtd">
<svg version="1.0" xmlns="http://www.w3.org/2000/svg"
 width="1024.000000pt" height="1024.000000pt" viewBox="0 0 1024.000000 1024.000000"
 preserveAspectRatio="xMidYMid meet">

<g transform="translate(0.000000,1024.000000) scale(0.100000,-0.100000)"
fill="#000000" stroke="none">
<path d="M0 5120 l0 -5120 5120 0 5120 0 0 5120 0 5120 -5120 0 -5120 0 0
-5120z m4936 4445 c3 -8 3 -19 -1 -25 -10 -16 -35 7 -28 26 7 18 22 18 29 -1z
m899 -314 c7 -12 -12 -24 -25 -16 -11 7 -4 25 10 25 5 0 11 -4 15 -9z m1399
-31 c351 -68 691 -246 961 -501 47 -45 82 -85 79 -90 -3 -5 0 -8 8 -7 7 2 12
-3 10 -10 -1 -8 2 -11 7 -8 4 3 21 -13 37 -37 16 -23 40 -52 53 -64 13 -13 21
-23 17 -23 -3 0 1 -12 10 -27 9 -16 -10 -1 -41 32 -48 51 -41 39 44 -75 118
-158 207 -323 280 -523 46 -123 92 -286 91 -320 -1 -11 -78 205 -101 278 -5
17 -19 53 -33 80 -13 28 -36 77 -51 110 -62 130 -157 280 -170 267 -3 -4 -5
-2 -3 3 4 15 -98 149 -186 242 -81 86 -238 225 -321 285 -235 168 -519 292
-765 334 -127 21 -356 24 -485 5 -90 -13 -240 -55 -249 -69 -5 -9 170 17 199
29 80 33 362 35 540 4 244 -43 588 -209 814 -392 127 -103 318 -309 279 -301
-8 2 -12 -4 -10 -15 2 -11 -4 -27 -14 -38 -13 -15 -14 -22 -5 -33 7 -8 10 -20
6 -26 -9 -15 -26 -2 -23 18 2 10 -3 16 -10 14 -8 -1 -11 2 -8 7 3 5 -1 14 -9
21 -8 7 -15 9 -15 4 0 -4 -19 10 -42 31 -30 29 -26 22 16 -26 161 -183 339
-492 410 -709 40 -121 70 -264 87 -401 17 -147 6 -151 -15 -5 -22 154 -63 315
-112 440 -41 105 -136 302 -158 331 l-16 20 7 -20 c4 -11 23 -54 44 -95 65
-134 110 -259 128 -358 39 -206 32 -239 -14 -67 -22 83 -78 238 -92 254 -2 3
-9 -1 -16 -8 -9 -9 -9 -14 3 -22 12 -8 12 -10 1 -7 -8 2 -22 20 -33 38 -23 43
-22 33 2 -58 56 -211 46 -384 -31 -547 -35 -76 -115 -161 -189 -203 -67 -39
-89 -42 -35 -5 50 34 61 45 116 113 126 157 161 388 94 615 -34 112 -54 153
-66 134 -7 -12 -9 -11 -9 2 0 18 -107 139 -123 139 -6 0 3 -15 20 -32 47 -49
110 -175 133 -264 12 -43 23 -122 26 -174 14 -231 -74 -402 -251 -489 -62 -30
-81 -35 -170 -39 -91 -4 -108 -1 -187 26 -106 36 -182 80 -258 149 -32 29 -60
50 -63 47 -3 -3 -8 0 -13 7 -4 8 -3 10 4 5 22 -13 12 9 -18 41 -17 18 -30 37
-30 42 0 6 -4 11 -9 11 -8 0 -18 20 -26 50 -1 3 -7 18 -13 33 -7 16 -12 33
-12 38 0 14 -48 107 -59 114 -6 3 3 -23 18 -57 77 -171 71 -361 -14 -472 -34
-45 -134 -112 -188 -127 -77 -22 -164 -15 -250 19 -53 20 -79 27 -82 19 -2 -7
-24 -127 -50 -267 -25 -140 -68 -370 -95 -510 -27 -140 -54 -284 -60 -320 -6
-36 -22 -121 -35 -190 -13 -69 -43 -226 -65 -350 -23 -124 -58 -317 -80 -430
-21 -113 -46 -245 -55 -295 -17 -94 -25 -110 -59 -126 -21 -10 -21 -10 -1 8
11 10 21 30 21 45 2 25 14 90 69 378 14 69 34 179 45 245 12 66 28 154 36 195
9 41 28 149 44 240 16 91 38 219 50 285 24 138 104 565 126 673 17 84 77 414
93 515 7 37 9 72 6 77 -7 12 -92 -14 -116 -36 -11 -9 -22 -14 -26 -10 -5 4 8
21 27 37 37 30 86 45 120 36 18 -5 20 0 20 37 0 26 -9 61 -23 87 -27 51 -98
109 -132 109 -13 0 -27 5 -30 10 -4 6 9 10 33 10 56 0 113 -44 147 -115 26
-53 28 -62 21 -143 -3 -48 -9 -96 -12 -107 -4 -17 5 -26 57 -50 54 -26 73 -30
148 -30 79 0 91 3 149 34 111 60 162 151 162 284 0 92 -33 188 -97 281 -60 88
-126 140 -210 166 -148 46 -281 6 -376 -112 -24 -30 -30 -48 -32 -90 -4 -101
-4 -101 -21 -94 -14 5 -15 4 -4 -9 13 -16 13 -15 -32 -19 -7 -1 -17 -7 -21
-14 -6 -9 -24 -13 -54 -10 l-46 3 -4 -40 c-4 -44 -48 -115 -70 -115 -8 0 -11
-4 -8 -10 3 -5 1 -10 -5 -10 -6 0 -8 -5 -4 -11 4 -7 1 -10 -7 -7 -19 6 -48 84
-49 133 l-1 40 -13 -35 c-8 -20 -17 -55 -21 -78 -6 -38 -10 -43 -47 -54 -33
-10 -44 -9 -66 4 -31 18 -72 91 -72 128 0 14 -5 32 -10 40 -7 11 -8 6 -4 -18
10 -49 -14 -117 -58 -167 -43 -49 -42 -52 17 -30 59 21 79 18 115 -15 31 -29
32 -33 28 -87 -4 -51 -9 -60 -43 -90 -31 -27 -47 -33 -84 -33 -55 0 -76 11
-69 38 6 21 -8 52 -22 52 -6 0 -10 -12 -10 -26 0 -26 -1 -26 -60 -22 -59 4
-79 -4 -40 -17 25 -8 27 -56 4 -76 -26 -22 -95 -15 -116 11 -22 28 -23 68 -2
91 15 17 13 18 -53 12 -68 -6 -69 -5 -96 26 -55 65 -30 173 47 207 l31 13 -27
1 c-15 0 -39 11 -54 24 -24 20 -29 34 -35 95 -5 55 -13 82 -37 122 l-32 50 20
40 c49 94 183 114 235 35 23 -34 31 -107 15 -135 -11 -21 -10 -22 10 -9 54 32
66 38 82 38 26 0 76 -48 83 -79 6 -28 7 -29 33 -15 34 18 50 17 85 -1 27 -14
28 -13 22 6 -7 22 28 69 52 69 30 0 10 20 -29 30 -69 18 -98 31 -109 52 -16
29 -13 101 6 139 9 19 10 27 3 18 -7 -9 -18 -14 -23 -12 -6 2 -19 -12 -28 -30
-16 -29 -17 -42 -9 -88 6 -30 14 -62 17 -71 9 -22 -3 -23 -26 -2 -9 8 -32 18
-51 21 -35 5 -78 28 -78 41 0 4 16 14 35 21 22 8 46 28 62 52 25 37 25 41 10
57 -14 13 -17 14 -17 2 -1 -8 -20 -36 -44 -62 l-44 -48 -39 39 c-44 44 -88 57
-158 46 -36 -5 -59 -18 -112 -66 -67 -59 -83 -68 -83 -48 0 5 -4 7 -10 4 -5
-3 -10 0 -10 9 0 22 -96 122 -141 148 -39 22 -51 43 -46 83 1 11 -3 19 -9 18
-7 -1 -14 6 -17 16 -3 14 1 19 20 19 16 0 22 -5 19 -14 -3 -8 10 1 29 20 22
22 50 38 77 44 l43 10 -38 1 c-25 1 -50 -7 -69 -20 -32 -23 -44 -18 -51 21 -4
21 -4 20 -6 -8 0 -17 -4 -31 -8 -30 -5 0 -17 -3 -27 -7 -12 -5 -35 -3 -62 7
-31 11 -41 12 -37 2 2 -7 15 -15 28 -18 36 -9 48 -39 34 -84 -7 -24 -17 -38
-28 -39 -15 -1 -17 6 -14 55 l3 57 -14 -50 c-13 -45 -44 -85 -67 -85 -5 0 -9
24 -9 54 0 81 -53 148 -129 162 -27 6 -32 4 -26 -6 5 -8 4 -11 -3 -7 -14 9
-43 -3 -36 -14 3 -5 1 -9 -5 -9 -5 0 -12 5 -14 10 -3 6 -4 5 -2 -2 1 -7 -14
-31 -34 -53 l-36 -39 43 37 c57 50 85 60 132 47 49 -13 70 -46 70 -110 0 -54
-16 -82 -63 -106 -15 -8 -25 -19 -22 -24 4 -6 -1 -7 -11 -3 -12 4 -15 3 -10
-5 4 -7 2 -12 -6 -12 -10 0 -10 -2 0 -8 9 -6 3 -17 -20 -41 -27 -27 -37 -32
-62 -27 -39 8 -46 16 -52 57 -7 47 -12 59 -24 59 -5 0 -10 -18 -10 -40 0 -33
-7 -48 -33 -75 -35 -36 -74 -51 -95 -36 -8 4 -17 33 -21 62 l-7 54 -7 -43 c-9
-52 -77 -132 -113 -132 -32 0 -38 15 -7 18 13 1 32 6 41 12 13 7 10 8 -13 4
-19 -3 -44 2 -67 14 -36 19 -37 19 -27 1 5 -11 15 -19 21 -19 6 0 8 -3 5 -6
-14 -14 -57 28 -68 65 -16 55 -5 105 31 133 l30 24 -27 -2 c-18 0 -27 -7 -29
-20 -2 -10 -10 -24 -18 -30 -11 -8 -16 -28 -16 -63 0 -59 10 -82 53 -128 l31
-33 -71 0 c-40 0 -74 -4 -77 -8 -3 -5 21 -17 52 -26 141 -44 159 -83 82 -168
-32 -35 -35 -43 -20 -53 6 -3 10 -12 10 -18 0 -7 -4 -6 -11 3 -9 12 -10 12 -7
1 8 -27 24 -21 36 13 26 70 121 73 187 6 37 -38 40 -60 6 -60 -19 0 -95 -46
-123 -74 -24 -24 -40 -89 -32 -132 3 -19 18 -49 31 -65 28 -33 25 -36 -18 -13
-25 13 -36 13 -67 3 -49 -16 -100 -49 -139 -89 l-33 -33 -16 39 c-50 122 -63
141 -133 195 -33 26 -33 26 -17 57 32 61 65 70 174 48 12 -3 22 -1 22 5 0 5
-5 9 -11 9 -5 0 -8 4 -5 9 3 5 -17 11 -45 13 -34 4 -58 13 -75 29 -14 13 -29
23 -32 21 -4 -2 -8 2 -10 10 -2 9 0 8 8 -2 9 -12 10 -10 3 10 -4 14 -8 48 -8
77 0 81 -16 45 -19 -44 -2 -44 -6 -86 -10 -92 -11 -17 -42 -13 -87 10 -23 11
-42 19 -44 17 -2 -2 14 -32 36 -68 43 -71 46 -82 25 -74 -9 3 -12 12 -8 22 5
15 4 15 -21 -1 -14 -9 -32 -17 -39 -17 -13 0 -91 -50 -96 -62 -8 -18 -20 -5
-36 36 -25 66 -79 135 -128 164 -23 14 -45 26 -46 28 -9 7 33 63 58 78 31 18
105 22 115 6 4 -6 16 -8 27 -4 17 5 20 3 15 -10 -4 -9 -4 -23 0 -32 4 -12 11
-3 23 30 10 25 33 64 50 87 l33 41 -56 -7 c-68 -9 -99 7 -124 61 -38 80 -147
46 -161 -50 -7 -45 -10 -49 -46 -61 -63 -22 -79 -45 -84 -121 l-5 -67 29 9
c53 15 100 9 143 -19 68 -45 72 -57 92 -280 11 -111 35 -353 54 -537 19 -184
46 -447 59 -585 28 -275 57 -545 86 -790 11 -88 27 -240 37 -338 l17 -179 30
-22 c17 -12 52 -32 79 -44 46 -21 47 -21 47 -2 0 43 -31 456 -50 665 -31 337
-40 417 -50 450 -46 145 -78 437 -51 455 9 5 10 37 2 131 -5 68 -22 294 -37
502 l-28 379 -38 -6 c-54 -9 -47 7 13 28 91 33 193 4 230 -66 11 -20 21 -156
54 -708 8 -146 18 -282 21 -304 6 -35 8 -38 34 -33 15 3 50 9 78 13 l51 6 -5
427 c-3 234 -8 432 -10 440 -4 13 -35 12 -76 -4 -10 -4 -18 -3 -18 3 0 5 28
22 61 37 87 39 157 25 222 -43 24 -25 29 -41 37 -118 5 -49 10 -250 10 -446
l0 -358 68 -34 c38 -19 74 -41 81 -50 8 -9 17 -16 21 -16 4 0 11 174 14 388 3
213 9 414 12 446 l5 59 -70 -5 c-61 -5 -71 -3 -71 11 0 9 -14 45 -32 81 -17
36 -31 68 -30 72 1 4 -7 12 -18 18 -11 6 -20 8 -20 5 0 -3 -18 4 -40 15 -51
26 -120 39 -148 29 -32 -12 -27 -2 8 16 42 22 99 18 146 -9 39 -22 41 -22 63
-5 21 17 21 18 2 24 -33 10 -79 71 -86 114 -8 48 15 103 58 135 38 28 122 33
170 8 20 -11 37 -17 37 -13 0 4 14 29 32 57 18 27 31 54 29 59 -1 6 1 7 5 3 4
-4 19 1 33 10 70 48 130 54 199 21 43 -21 77 -62 88 -107 10 -37 -13 -75 -67
-110 -27 -18 -47 -37 -44 -43 4 -5 1 -8 -6 -7 -7 2 -15 -7 -18 -19 -3 -13 -14
-32 -23 -43 -23 -26 -22 -26 53 10 37 17 72 28 84 24 44 -12 65 -28 78 -63 21
-51 0 -93 -54 -108 -27 -7 -41 -7 -46 0 -4 6 -1 7 7 2 9 -5 11 -4 6 3 -4 7
-18 9 -31 6 -13 -3 -34 0 -47 7 -20 11 -22 11 -10 -3 11 -13 9 -17 -12 -22
-14 -3 -45 -31 -68 -61 -46 -57 -58 -62 -121 -44 -34 9 -45 7 -105 -22 -73
-35 -66 -50 13 -30 97 24 179 4 239 -58 l27 -28 -17 -449 c-9 -247 -18 -455
-20 -461 -2 -9 -10 -10 -29 -3 -33 13 -32 -1 5 -65 74 -128 90 -165 90 -210 0
-34 -4 -45 -15 -45 -23 0 -85 33 -137 73 -86 66 -93 60 -24 -17 66 -73 89 -88
145 -90 24 -1 26 -5 26 -44 0 -50 -10 -82 -25 -82 -5 0 -10 8 -10 17 0 15 -2
14 -15 -3 -8 -11 -15 -14 -15 -6 0 6 -8 12 -17 13 -13 0 -11 3 6 10 13 5 21
12 18 15 -5 6 -75 -10 -120 -28 l-29 -11 49 -23 c26 -13 57 -23 67 -23 18 -1
19 -8 13 -118 -4 -65 -12 -299 -18 -521 -6 -221 -11 -430 -12 -464 l-2 -62 75
-42 c41 -23 76 -39 77 -35 2 6 13 199 53 941 34 628 70 1392 70 1491 0 31 -4
38 -30 49 -61 25 2 42 71 19 19 -7 43 -20 55 -30 26 -24 37 -24 58 0 20 22 93
44 127 39 18 -3 9 -8 -35 -22 -33 -9 -75 -28 -95 -42 -20 -13 -37 -20 -39 -14
-14 42 -20 -39 -21 -292 -1 -161 -6 -358 -11 -438 -5 -80 -10 -183 -10 -230 0
-59 -3 -80 -10 -70 -7 10 -10 -8 -10 -60 -1 -41 -2 -203 -4 -360 -2 -157 -4
-466 -5 -688 l-1 -404 -32 20 c-47 28 -169 92 -453 237 -137 70 -254 131 -260
135 -5 4 -109 58 -230 120 -440 226 -426 220 -401 173 36 -67 194 -207 287
-253 32 -17 59 -34 59 -39 0 -5 18 -11 39 -14 61 -8 124 -55 136 -101 7 -32 6
-40 -8 -51 -9 -7 -17 -20 -17 -29 0 -10 -14 -23 -31 -30 -28 -12 -29 -14 -10
-19 12 -3 37 -1 57 5 106 29 175 -65 129 -176 -27 -63 -97 -91 -156 -61 -19 9
-55 38 -81 63 -50 49 -62 50 -28 4 18 -24 19 -32 9 -62 -29 -84 -110 -107
-168 -49 -30 30 -44 89 -21 89 6 0 10 4 10 9 0 13 -33 8 -49 -7 -14 -14 -49
-12 -84 3 -18 7 -18 6 -2 -31 19 -46 59 -89 137 -151 80 -61 140 -86 213 -87
59 -1 70 3 130 48 7 6 30 -4 63 -28 29 -20 76 -52 104 -72 29 -21 75 -54 102
-76 54 -42 76 -45 91 -10 11 26 25 29 25 6 0 -14 2 -14 15 0 17 17 20 30 5 21
-13 -8 -13 28 -1 40 15 16 -5 98 -41 163 -39 72 -135 190 -190 234 -21 16 -46
44 -55 62 -8 17 -37 51 -64 76 -40 37 -49 53 -57 96 -9 50 -9 51 17 49 14 -1
51 -18 81 -39 30 -20 60 -36 66 -36 7 0 14 -3 16 -8 2 -4 37 -25 78 -46 90
-47 130 -75 130 -92 0 -7 9 -10 23 -7 16 3 18 2 9 -5 -10 -7 -6 -11 16 -15 18
-4 33 -14 37 -27 3 -11 13 -20 22 -20 12 0 13 3 4 14 -9 11 -3 10 24 -2 22
-10 34 -21 30 -30 -3 -9 1 -11 15 -7 11 4 20 2 20 -4 0 -5 9 -11 20 -13 12 -2
20 -7 20 -11 -2 -13 32 -35 45 -30 7 2 18 -3 25 -12 7 -8 18 -15 24 -15 20 0
146 -67 139 -74 -3 -3 1 -6 10 -6 9 0 17 -3 17 -7 0 -5 14 -9 30 -10 17 -1 51
-11 76 -23 26 -11 53 -20 60 -20 8 0 14 -5 14 -11 0 -6 -6 -9 -14 -6 -8 3 -17
-1 -20 -10 -4 -9 -9 -13 -12 -10 -3 2 -16 -6 -30 -20 -14 -14 -29 -21 -37 -17
-6 4 -9 4 -5 -1 4 -4 3 -14 -3 -22 -13 -15 -13 -15 23 -17 15 -1 25 1 23 5 -5
8 108 79 125 79 27 0 40 -27 29 -59 -16 -45 7 -74 78 -101 86 -32 142 -24 234
32 60 37 122 64 137 59 1 -1 11 8 23 20 12 12 29 19 39 16 13 -3 17 0 13 9 -3
9 0 12 9 9 9 -4 29 5 46 19 16 15 35 26 42 26 6 0 9 4 6 8 -3 5 10 15 29 22
19 8 35 17 35 21 0 3 14 12 30 19 17 7 30 16 30 20 0 4 20 17 45 30 24 12 52
30 62 39 19 17 231 162 286 196 46 28 158 102 181 119 10 8 62 43 117 78 55
35 98 70 98 79 1 9 20 24 43 35 53 24 178 105 197 127 7 9 18 14 24 10 6 -3 7
-1 3 5 -3 6 3 16 15 22 21 12 20 13 -27 61 l-48 49 29 1 c17 1 38 0 48 -1 10
-1 27 6 38 16 17 16 19 16 19 1 0 -10 4 -17 8 -17 16 0 72 31 72 40 0 4 8 6
18 3 10 -2 24 3 31 11 8 9 22 16 32 16 10 0 20 9 24 19 6 19 32 34 51 30 5 -1
25 4 44 12 19 7 40 12 45 10 6 -1 7 0 3 4 -11 12 19 36 36 29 11 -4 16 0 16
11 0 11 5 15 16 11 8 -3 12 -2 9 3 -3 6 3 14 12 20 16 9 16 10 1 11 -9 0 -19
-5 -21 -10 -3 -6 -4 -5 -3 2 1 7 13 15 27 16 13 2 29 8 36 14 7 5 17 7 23 3 8
-5 123 62 176 102 20 16 50 33 80 47 17 7 50 26 75 42 123 78 250 152 247 144
-3 -9 -252 -189 -390 -282 -49 -32 -88 -63 -88 -68 0 -6 -7 -10 -16 -10 -8 0
-12 -4 -9 -10 3 -5 -5 -15 -19 -22 -14 -6 -26 -15 -26 -19 0 -4 -9 -11 -20
-14 -11 -4 -18 -11 -15 -16 3 -5 -1 -6 -9 -3 -9 3 -16 1 -16 -6 0 -6 -4 -9 -9
-6 -5 4 -11 2 -13 -2 -1 -5 -32 -28 -68 -52 -36 -24 -69 -48 -75 -52 -5 -4
-24 -19 -41 -33 -18 -14 -35 -25 -38 -25 -4 0 -40 -25 -80 -55 -40 -30 -78
-55 -84 -55 -6 0 -15 -6 -19 -14 -4 -7 -27 -23 -49 -34 -23 -12 -55 -33 -72
-47 -16 -14 -34 -25 -38 -25 -8 0 -23 -11 -99 -76 -16 -14 -55 -39 -85 -56
-30 -18 -57 -35 -60 -38 -15 -19 -117 -93 -153 -110 -60 -29 -106 -63 -107
-78 0 -7 -4 -11 -9 -8 -5 4 -11 2 -13 -3 -3 -9 -104 -79 -388 -268 -36 -23
-99 -68 -140 -98 -87 -63 -97 -70 -205 -142 -44 -29 -123 -84 -175 -121 -52
-37 -116 -81 -141 -97 -26 -17 -113 -74 -193 -128 -80 -54 -150 -96 -155 -92
-5 3 -12 1 -16 -5 -3 -5 -17 -10 -30 -10 -13 0 -25 -5 -27 -10 -2 -6 -12 -12
-23 -15 -11 -2 -36 -9 -55 -14 -57 -18 -82 -13 -168 29 -44 22 -86 40 -92 40
-5 0 -10 4 -10 9 0 5 -8 11 -17 14 -10 3 -29 13 -43 21 -26 15 -157 76 -165
76 -2 0 -24 14 -48 30 -25 17 -49 30 -55 30 -6 0 -13 6 -16 13 -3 8 -8 7 -16
-5 -6 -10 -16 -18 -22 -18 -7 0 -6 5 2 15 9 11 9 15 1 15 -7 0 -9 5 -5 13 4 7
3 9 -2 4 -5 -5 -10 -13 -10 -18 -1 -5 -2 -13 -3 -18 0 -5 -12 -11 -26 -13 -13
-3 -22 -1 -19 3 3 5 -4 9 -16 9 -20 0 -227 110 -403 214 -43 25 -79 46 -81 46
-2 0 -42 22 -88 49 -45 27 -177 100 -293 164 -301 165 -898 499 -925 518 -15
9 -21 21 -18 31 4 9 91 64 195 123 221 127 356 212 349 223 -2 4 2 21 9 38 14
34 75 69 106 61 16 -4 19 0 19 35 0 25 6 46 18 56 9 10 13 14 8 9 -23 -17 -29
-5 -7 14 19 15 26 17 32 7 7 -11 9 -11 9 0 0 7 4 11 10 7 5 -3 26 1 46 10 45
18 50 19 35 2 -8 -11 -3 -17 24 -30 l34 -16 83 51 c99 60 118 76 112 91 -2 7
-11 56 -19 111 -8 54 -17 101 -20 104 -3 3 -13 -2 -22 -10 -10 -9 -133 -87
-273 -175 -140 -88 -318 -200 -395 -248 -77 -49 -189 -119 -250 -156 -60 -37
-109 -70 -107 -74 3 -7 -147 -115 -161 -115 -4 0 -5 6 -1 13 4 7 3 9 -2 4 -5
-5 -9 -12 -9 -17 0 -5 -33 -32 -73 -60 -133 -94 -164 -185 -96 -283 50 -71 54
-73 684 -440 349 -203 519 -301 855 -495 518 -298 620 -355 681 -384 120 -56
282 -73 426 -43 79 17 220 81 309 142 31 21 171 115 310 210 140 94 340 231
444 303 105 73 282 195 395 271 113 77 272 186 353 242 300 207 508 348 1235
833 408 273 766 517 795 542 l52 46 -40 -43 c-48 -52 -189 -154 -520 -376
-908 -611 -1089 -734 -1655 -1125 -91 -63 -210 -144 -265 -181 -55 -37 -181
-124 -280 -193 -439 -305 -866 -591 -935 -626 -30 -15 -91 -40 -135 -56 -72
-25 -93 -28 -205 -28 -108 1 -136 4 -205 27 -94 31 -459 229 -880 477 -44 25
-127 73 -185 105 -58 32 -159 90 -225 130 -66 39 -156 91 -200 115 -44 24
-161 92 -260 150 -99 59 -223 131 -275 160 -145 81 -241 146 -284 193 -37 40
-37 41 -20 9 11 -19 36 -49 57 -68 61 -56 42 -50 -24 7 -136 118 -148 257 -31
365 35 32 177 125 427 279 268 165 350 215 500 308 88 55 219 137 292 183 72
46 148 91 167 101 20 9 36 22 36 29 0 12 -49 385 -96 724 -13 102 -31 235 -39
295 -22 166 -35 257 -41 287 l-5 26 -50 -31 c-36 -22 -46 -33 -37 -40 9 -6 8
-7 -5 -3 -10 3 -35 -5 -58 -20 -66 -41 -157 -93 -262 -147 -32 -16 -56 -32
-53 -34 6 -7 76 25 127 57 25 17 51 30 57 30 6 0 39 19 74 43 86 58 85 58 85
42 0 -8 -5 -15 -11 -15 -7 0 -19 -8 -28 -17 -25 -27 -42 -39 -79 -58 -19 -10
-37 -22 -40 -27 -3 -5 -15 -11 -25 -13 -10 -2 -21 -4 -24 -5 -3 0 -16 -10 -29
-21 -21 -17 -22 -22 -10 -30 11 -7 9 -9 -8 -9 -31 0 -29 -9 9 -40 24 -21 30
-31 23 -46 -7 -17 -8 -18 -12 -1 -3 9 -9 15 -14 12 -4 -3 -21 1 -36 10 l-28
16 27 -6 c46 -9 32 2 -24 20 -29 10 -64 24 -77 32 -19 12 -25 13 -32 2 -4 -8
-1 -18 9 -26 15 -11 15 -12 -7 -13 -17 0 -22 -4 -17 -16 4 -10 1 -14 -6 -11
-7 2 -19 -3 -26 -12 -11 -13 -12 -13 -7 -1 6 13 5 13 -7 0 -7 -8 -22 -20 -33
-26 -10 -6 -21 -17 -23 -25 -3 -9 2 -8 17 5 25 22 27 10 6 -30 -15 -28 -14
-30 11 -52 53 -46 9 -36 -78 18 -26 16 -66 34 -88 41 -22 7 -39 16 -38 21 2 4
46 28 98 51 52 24 214 110 360 192 146 81 289 162 318 178 50 28 53 31 48 61
-3 17 -10 69 -16 116 -17 138 -13 130 -62 115 -24 -7 -70 -15 -103 -19 -97
-11 -262 -36 -375 -57 -86 -16 -272 -45 -541 -86 -32 -5 -42 0 -77 31 -51 47
-57 70 -82 347 -25 271 -29 293 -25 124 2 -85 0 -123 -6 -110 -7 14 -8 8 -4
-22 5 -41 0 -49 -28 -44 -4 0 -7 -4 -7 -9 0 -6 -10 -10 -22 -10 -19 0 -20 -2
-8 -10 12 -8 10 -10 -10 -10 -19 0 -25 5 -26 23 -1 20 3 22 43 21 l44 -1 -3
36 c-3 35 -4 36 -43 36 -24 0 -40 -5 -40 -12 0 -6 -3 -14 -6 -18 -4 -3 -10 28
-14 70 -8 85 -1 112 10 40 5 -36 10 -45 22 -41 8 3 26 6 39 6 27 0 32 22 12
65 -10 22 -17 26 -40 21 -53 -11 -54 -5 -108 604 -6 63 -13 126 -16 140 -5 28
-47 20 471 100 143 22 312 49 375 60 183 32 426 70 545 85 61 8 193 26 295 40
346 48 405 55 451 55 46 0 46 0 53 -37 3 -21 6 -60 6 -87 l0 -49 25 23 c22 20
24 30 21 79 -3 31 -2 50 1 44 2 -7 17 -13 31 -13 28 -1 65 -22 57 -33 -3 -4
-2 -5 2 -2 4 3 8 12 9 20 6 38 27 84 49 105 14 13 25 31 25 39 0 10 3 12 8 5
4 -7 15 -8 27 -3 18 7 18 8 2 8 -13 1 -17 7 -15 23 5 33 60 42 108 17 30 -16
45 -18 83 -10 39 7 49 6 56 -7 7 -13 11 -7 16 23 12 79 13 80 42 82 67 4 137
13 141 17 2 3 7 25 9 51 3 25 10 45 14 45 5 0 9 12 9 28 0 15 3 44 7 66 6 38
6 38 19 15 11 -20 13 -21 14 -6 0 10 5 15 10 12 6 -4 10 5 10 19 0 24 4 26 40
26 33 0 40 -3 40 -20 0 -16 7 -20 36 -20 27 0 37 5 41 20 3 11 9 20 14 20 5 0
6 7 3 15 -10 26 5 16 20 -12 12 -24 20 -28 59 -28 42 -1 46 1 53 30 5 21 8 25
11 13 4 -14 15 -18 54 -18 l49 0 0 -39 c0 -22 5 -43 10 -46 6 -4 7 -12 3 -18
-16 -25 -14 -94 2 -111 20 -20 34 -20 41 -2 3 8 12 12 20 9 7 -3 30 5 50 16
20 12 43 20 49 17 7 -2 16 -2 20 2 4 4 12 7 18 7 7 0 11 10 9 21 -1 12 4 27
13 34 8 7 12 17 8 23 -3 6 -1 7 5 3 9 -5 7 -14 -4 -32 -9 -13 -14 -24 -11 -24
3 0 16 17 28 38 34 55 75 105 164 199 143 152 353 293 578 388 56 23 129 59
162 79 87 53 241 98 415 120 82 10 328 -3 434 -24z m-2846 -106 c36 -25 46
-53 27 -74 -13 -15 -15 -28 -10 -61 8 -45 -2 -59 -43 -59 -14 0 -29 11 -40 30
-18 29 -19 29 -35 9 -16 -18 -19 -18 -42 -3 -14 9 -25 25 -25 35 0 10 -4 21
-10 24 -17 11 -11 61 10 80 17 15 24 16 47 6 23 -10 29 -9 47 8 24 25 44 26
74 5z m851 -15 c11 -19 10 -24 -8 -42 -20 -20 -22 -20 -38 -4 -15 14 -15 20
-3 42 16 31 31 32 49 4z m461 -4 c0 -8 10 -20 22 -26 23 -12 23 -12 2 -21 -11
-5 -25 -22 -31 -36 -10 -25 -11 -26 -12 -4 -1 14 -13 30 -33 42 -30 18 -31 20
-10 20 14 0 27 9 34 25 11 25 28 25 28 0z m-2282 -71 c37 -25 44 -48 26 -84
-20 -39 -13 -47 20 -25 24 16 28 16 51 1 41 -27 51 -64 28 -106 -21 -41 -52
-49 -104 -27 -34 13 -34 13 -44 -17 -5 -17 -22 -37 -36 -45 -22 -12 -29 -12
-55 0 -25 13 -29 20 -28 52 1 34 0 36 -15 24 -9 -8 -26 -18 -37 -21 -29 -9
-64 35 -64 79 0 40 39 85 75 85 21 0 25 5 25 29 0 60 101 95 158 55z m-902
-245 c10 -17 -13 -36 -27 -22 -12 12 -4 33 11 33 5 0 12 -5 16 -11z m2519 -21
c10 -31 50 -65 86 -73 35 -8 31 -20 -10 -28 -20 -4 -37 -20 -57 -51 -16 -25
-31 -45 -34 -46 -3 0 -15 20 -28 44 -26 48 -60 72 -92 63 -13 -3 -20 -1 -17 6
2 6 17 14 33 18 42 8 73 30 87 62 14 33 23 34 32 5z m-2228 -87 c15 -9 16 -10
2 -11 -9 0 -24 -10 -32 -22 -13 -19 -16 -20 -16 -6 -1 9 -8 21 -17 26 -14 8
-13 12 8 35 21 24 24 24 30 7 4 -10 15 -23 25 -29z m1300 -18 c58 -92 75 -124
70 -129 -2 -2 -23 26 -45 64 -23 38 -47 73 -54 79 -14 11 -104 -45 -558 -347
-243 -162 -272 -180 -255 -163 27 27 330 233 775 526 14 9 28 16 31 16 3 1 19
-20 36 -46z m-2077 0 c0 -32 -13 -22 -18 13 -2 16 1 23 8 19 5 -3 10 -18 10
-32z m77 21 c-3 -3 -12 -4 -19 -1 -8 3 -5 6 6 6 11 1 17 -2 13 -5z m-34 -21
c-7 -2 -19 -2 -25 0 -7 3 -2 5 12 5 14 0 19 -2 13 -5z m2054 -106 c11 -11 13
-21 7 -25 -6 -4 -41 -29 -78 -56 l-67 -49 -72 8 c-40 4 -96 11 -126 14 l-53 6
101 69 c58 40 122 74 149 82 42 11 51 10 85 -9 20 -12 45 -29 54 -40z m583
-61 c0 -21 -21 -31 -30 -15 -5 7 -6 17 -4 21 9 14 34 9 34 -6z m4084 -65 c-8
-9 -34 10 -34 25 0 16 2 16 19 -2 10 -10 17 -21 15 -23z m-6167 7 c13 -12 23
-16 23 -10 0 23 60 13 85 -14 32 -34 31 -49 -2 -78 -21 -18 -26 -32 -27 -71
-1 -34 -6 -51 -19 -59 -27 -17 -67 9 -94 62 -1 2 -11 -6 -22 -17 -25 -25 -35
-26 -55 -5 -26 25 -30 61 -11 90 14 22 22 25 48 21 29 -5 30 -5 10 5 -31 15
-38 44 -19 73 20 31 52 32 83 3z m5678 -18 c16 -17 16 -20 3 -15 -9 4 -19 13
-22 21 -7 19 -2 18 19 -6z m-5205 -52 c0 -5 -5 -15 -12 -22 -10 -11 -15 -11
-26 0 -18 18 6 59 25 42 7 -6 13 -15 13 -20z m870 28 c0 -2 -25 -20 -55 -40
-30 -20 -55 -34 -55 -31 0 4 101 75 107 75 2 0 3 -2 3 -4z m-2384 -116 c8 0
12 -4 9 -10 -8 -13 -55 -13 -55 -1 0 6 5 13 10 16 6 3 11 16 11 28 2 17 3 16
6 -5 3 -16 11 -28 19 -28z m2064 40 c136 -21 133 -20 119 -36 -7 -8 -49 -40
-93 -72 -45 -31 -88 -64 -96 -73 -17 -19 -70 -54 -70 -46 0 3 16 15 35 27 19
12 35 25 35 30 0 4 -51 11 -113 15 -133 8 -154 16 -108 40 18 9 67 41 109 71
83 58 85 59 182 44z m200 -4 c0 -2 -18 -15 -40 -30 -22 -14 -40 -24 -40 -22 0
5 71 56 77 56 2 0 3 -2 3 -4z m170 -142 c0 -8 -7 -14 -15 -14 -15 0 -21 21 -9
33 10 9 24 -2 24 -19z m184 -49 c-4 -8 -11 -15 -16 -15 -6 0 -5 6 2 15 7 8 14
15 16 15 2 0 1 -7 -2 -15z m-1861 -2 c-7 -2 -21 -2 -30 0 -10 3 -4 5 12 5 17
0 24 -2 18 -5z m-604 -47 c9 -11 8 -15 -5 -20 -23 -9 -24 -8 -24 14 0 23 13
26 29 6z m7594 -236 c8 0 8 -3 0 -11 -7 -7 -19 -9 -28 -6 -13 6 -13 10 -3 27
10 16 14 18 16 5 2 -8 9 -15 15 -15z m-8145 -41 c10 0 6 -5 -10 -11 -19 -6
-28 -17 -28 -31 -1 -22 -1 -22 -12 -2 -6 11 -18 24 -25 28 -12 7 -11 12 6 28
12 11 21 25 21 32 1 7 8 0 16 -15 8 -16 22 -28 32 -29z m3649 -76 c-3 -10 -5
-4 -5 12 0 17 2 24 5 18 2 -7 2 -21 0 -30z m256 -29 c70 -36 108 -97 110 -179
2 -51 2 -51 28 -42 34 13 92 1 115 -24 14 -16 19 -36 19 -84 0 -76 -18 -100
-83 -117 l-44 -11 28 -13 c23 -10 25 -13 9 -13 -11 0 -42 10 -70 24 -69 34
-76 32 -54 -12 49 -96 -8 -197 -124 -218 -43 -8 -58 11 -77 95 -10 43 -22 64
-56 97 -57 55 -136 81 -192 62 -48 -16 -104 -53 -94 -64 4 -5 2 -5 -5 -1 -11
6 -54 -43 -83 -93 -15 -28 -65 5 -91 61 -25 53 -80 98 -119 98 -47 0 -33 51
27 97 57 44 130 35 264 -32 l66 -33 -16 43 c-14 40 -14 46 2 79 9 20 28 42 42
48 21 9 25 18 25 53 0 63 17 100 59 129 42 30 96 34 140 11 27 -13 29 -13 34
5 5 21 57 49 90 50 10 0 32 -7 50 -16z m3333 -14 c0 -12 -4 -16 -9 -11 -5 5
-6 14 -3 20 10 15 12 14 12 -9z m813 -25 c18 -20 32 -37 30 -38 -2 -2 -30 -8
-61 -14 -79 -16 -107 -38 -108 -85 0 -20 5 -49 10 -65 10 -26 9 -27 -5 -8 -18
22 -45 108 -45 140 0 28 26 63 64 86 47 28 77 24 115 -16z m-2265 -14 c79 -38
153 -107 185 -175 22 -44 22 -48 7 -72 -18 -26 -36 -24 -36 4 0 15 -2 15 -10
2 -5 -8 -7 -24 -4 -35 4 -16 3 -17 -5 -5 -6 8 -11 24 -12 35 0 12 -3 15 -6 7
-4 -10 -8 -9 -19 5 -10 14 -13 14 -14 4 0 -11 -4 -9 -14 4 -8 11 -12 24 -9 30
4 5 3 7 -1 3 -5 -4 -17 2 -29 12 -39 37 -104 55 -158 43 -27 -5 -49 -6 -49 -1
0 4 12 9 28 9 18 1 21 3 9 6 -10 3 -32 -1 -49 -8 -24 -10 -31 -10 -38 1 -9 14
-21 18 -86 22 -31 2 -40 7 -36 17 3 9 1 12 -5 8 -6 -4 -14 -1 -16 5 -4 10 -8
9 -16 -2 -6 -8 -11 -11 -11 -6 0 4 14 25 30 47 69 86 230 104 364 40z m-1647
-106 c-23 -22 -33 -18 -12 5 10 11 20 18 23 16 2 -3 -3 -12 -11 -21z m3472
-32 c-1 -55 -2 -56 -9 -19 -7 35 -3 76 6 76 2 0 3 -26 3 -57z m-7231 -11 c-9
-11 -14 -10 -26 2 -13 12 -13 18 -2 31 11 14 14 13 25 -2 10 -13 10 -22 3 -31z
m3027 18 c24 -9 26 -14 21 -40 -3 -17 -9 -44 -12 -60 -4 -17 -10 -32 -14 -35
-4 -2 -30 5 -59 15 -65 25 -132 20 -204 -16 -47 -24 -50 -24 -29 -5 12 12 23
26 23 31 1 6 2 14 3 19 2 15 46 53 46 41 0 -7 6 -8 17 -2 9 5 33 7 53 5 38 -5
86 13 109 41 16 19 13 19 46 6z m100 -30 c-3 -5 -12 -10 -18 -10 -7 0 -6 4 3
10 19 12 23 12 15 0z m1270 -10 c-3 -5 -13 -10 -21 -10 -8 0 -12 5 -9 10 3 6
13 10 21 10 8 0 12 -4 9 -10z m-4768 -45 c46 -14 83 -30 83 -34 0 -18 -26 -18
-73 0 -54 22 -112 26 -101 7 4 -6 3 -8 -4 -4 -13 8 -98 -57 -94 -73 1 -7 -1
-10 -6 -7 -5 3 -23 0 -39 -6 -17 -6 -38 -8 -49 -4 -15 6 -10 12 32 35 27 15
75 46 105 69 30 23 56 42 58 42 3 0 42 -11 88 -25z m627 -73 c3 -5 -29 -29
-72 -53 -207 -117 -458 -335 -560 -486 -81 -119 -103 -210 -74 -296 24 -72 10
-64 -18 9 -18 49 -19 64 -10 112 13 71 49 149 104 226 101 141 357 354 561
468 55 30 61 32 69 20z m1814 -77 c-3 -3 -9 2 -12 12 -6 14 -5 15 5 6 7 -7 10
-15 7 -18z m3158 -22 c50 -69 81 -88 143 -87 55 2 55 2 27 -13 -50 -26 -164 8
-200 59 -17 24 -22 78 -7 78 5 0 22 -17 37 -37z m-5016 19 c0 -10 -60 -36 -67
-28 -3 3 9 12 28 20 41 18 39 18 39 8z m4729 -29 c32 -39 36 -69 15 -101 l-18
-27 -14 50 c-8 28 -20 53 -26 57 -21 14 -56 8 -77 -13 -19 -19 -20 -19 -17 -3
4 23 64 64 94 64 13 0 32 -12 43 -27z m3159 -26 c20 -18 23 -29 18 -59 -6 -39
7 -51 31 -27 7 7 23 9 37 5 63 -16 74 -111 16 -141 -31 -16 -73 -12 -99 9 -11
9 -12 5 -7 -21 6 -26 3 -34 -20 -52 -32 -25 -71 -27 -96 -4 -22 20 -23 41 -3
64 15 15 13 17 -21 23 -20 4 -39 5 -42 2 -3 -3 4 -6 16 -6 25 0 28 -10 10 -28
-39 -39 -103 16 -95 81 8 55 33 79 78 75 36 -3 37 -3 33 27 -11 74 84 108 144
52z m-4248 -6 c0 -5 -7 -28 -15 -51 -8 -23 -15 -62 -15 -85 0 -56 -19 -62 -59
-20 -17 19 -40 37 -51 40 -23 7 -27 25 -7 25 8 0 40 23 71 50 55 48 76 60 76
41z m3900 -28 c0 -5 -5 -15 -10 -23 -8 -12 -10 -11 -10 8 0 12 5 22 10 22 6 0
10 -3 10 -7z m-7730 -32 c0 -5 -7 -12 -16 -15 -14 -5 -15 -4 -4 9 14 17 20 19
20 6z m3700 -116 c48 -25 67 -116 34 -163 -21 -31 -5 -28 37 8 34 27 39 28 73
18 63 -20 86 -49 86 -110 0 -44 -5 -59 -27 -85 -16 -18 -37 -33 -48 -35 -11
-2 -26 -10 -33 -18 -10 -13 -11 -12 -5 4 5 14 3 17 -7 11 -10 -6 -11 -2 -6 19
5 19 2 28 -9 32 -8 3 -23 20 -34 38 -16 25 -34 36 -91 55 -74 23 -81 35 -27
46 39 9 57 22 57 43 0 13 -2 13 -17 0 -10 -8 -53 -27 -95 -43 -42 -15 -86 -38
-98 -50 -26 -28 -50 -22 -50 12 0 13 -9 43 -20 65 -26 54 -26 58 10 58 32 0
110 34 110 48 0 4 14 23 30 41 28 30 35 32 68 26 20 -4 48 -13 62 -20z m1050
-115 c11 -7 6 -10 -20 -10 -50 0 -102 -16 -144 -45 -20 -13 -36 -20 -36 -15 0
9 73 62 100 73 25 9 84 7 100 -3z m902 -56 c76 -27 178 -103 229 -173 26 -36
45 -68 43 -71 -3 -3 -14 6 -25 19 -10 13 -19 18 -19 12 0 -7 -5 -9 -12 -5 -7
4 -8 3 -4 -5 4 -6 12 -9 17 -6 9 6 13 -8 4 -17 -3 -3 -38 28 -78 69 -136 141
-269 179 -487 139 -26 -4 -30 -3 -15 3 14 7 16 10 5 11 -8 1 -4 6 10 11 14 6
33 8 42 5 10 -2 21 0 24 6 3 5 18 7 33 4 18 -5 22 -4 12 3 -37 24 151 20 221
-5z m-1972 -74 c67 -34 90 -110 49 -160 -20 -24 -21 -24 -35 -5 -14 18 -14 18
-14 -4 0 -12 -5 -31 -10 -42 -13 -23 -3 -25 21 -3 24 21 88 28 119 12 43 -23
37 -46 -31 -114 -65 -66 -79 -71 -127 -45 -33 18 -45 13 -40 -14 3 -16 1 -25
-7 -25 -7 0 -18 -7 -25 -15 -7 -8 -23 -15 -36 -15 -18 0 -24 5 -24 23 0 13 -7
32 -15 43 -15 18 -15 18 -9 -9 8 -36 -10 -57 -49 -57 -41 0 -67 26 -67 67 0
27 6 37 33 53 19 12 25 20 16 20 -9 0 -22 -6 -28 -14 -12 -14 -93 -46 -115
-46 -6 0 -30 25 -53 55 -23 30 -58 65 -78 77 -39 26 -39 26 -23 65 7 15 12 34
13 42 0 7 11 21 25 30 18 12 22 13 15 2 -6 -11 -4 -13 11 -7 63 25 146 7 159
-34 5 -16 9 -15 35 11 16 16 42 32 57 35 16 3 33 15 38 27 16 34 73 67 117 67
21 0 57 -9 78 -20z m750 -50 c11 -7 -3 -10 -46 -10 -46 0 -73 -6 -109 -26 -32
-17 -44 -20 -35 -9 37 44 150 71 190 45z m-1675 -18 c-3 -3 -11 0 -18 7 -9 10
-8 11 6 5 10 -3 15 -9 12 -12z m1355 -57 l0 -34 -67 3 c-46 2 -78 -2 -98 -12
l-30 -15 25 27 c13 15 29 25 36 22 8 -3 10 3 6 16 -3 14 -1 19 6 14 6 -3 13
-2 17 4 3 5 28 10 56 10 l49 0 0 -35z m3285 -66 c50 -28 144 -80 210 -116 66
-36 167 -94 225 -128 58 -34 126 -73 151 -88 25 -14 52 -34 60 -43 13 -16 12
-16 -17 -1 -29 15 -36 15 -93 -3 -34 -10 -81 -30 -105 -44 -48 -28 -147 -120
-189 -176 -20 -27 -25 -30 -21 -12 4 14 2 22 -6 22 -6 0 -25 9 -40 20 l-29 21
-14 -23 c-8 -13 -22 -36 -31 -53 -22 -43 -20 -25 4 31 11 26 19 48 18 49 -6 3
-215 124 -284 163 -64 37 -108 72 -89 72 4 0 33 -15 64 -33 91 -55 142 -78
153 -71 6 4 8 2 5 -3 -4 -6 8 -20 26 -30 17 -11 57 -36 88 -56 l56 -36 23 31
c17 23 19 30 7 25 -9 -3 -17 -1 -20 6 -2 6 -6 3 -10 -7 -5 -11 -3 -15 5 -10 7
4 8 3 4 -5 -10 -15 -29 -3 -22 15 4 11 2 11 -13 2 -14 -9 -23 -8 -42 5 -13 10
-19 17 -13 17 5 0 15 -5 20 -10 8 -8 15 -6 25 6 8 10 9 15 3 11 -7 -4 -26 -4
-44 -1 -23 5 -28 9 -18 16 9 6 6 7 -9 3 -13 -3 -23 -2 -23 2 0 5 -20 17 -45
27 -25 11 -45 23 -45 27 0 4 -9 11 -21 14 -15 5 -17 10 -9 20 9 10 2 18 -30
36 -22 12 -40 27 -40 31 0 5 -4 7 -8 4 -4 -2 -14 4 -21 16 -10 16 -10 18 0 12
9 -5 10 -2 6 9 -3 9 7 46 23 83 17 36 39 97 51 135 12 38 24 69 27 69 4 0 48
-23 97 -51z m-7261 -29 c-6 -28 -8 -30 -17 -14 -7 13 -7 19 1 22 7 2 12 11 12
20 0 8 2 13 5 10 3 -3 2 -20 -1 -38z m3936 10 c8 -1 -16 -11 -55 -24 -38 -12
-86 -31 -105 -41 l-35 -18 20 23 c26 30 114 71 140 65 11 -3 27 -5 35 -5z
m-5023 -147 c-8 -7 -37 9 -31 19 3 5 12 4 20 -3 8 -6 13 -14 11 -16z m648 -75
c33 -15 51 -28 41 -28 -24 0 -154 79 -161 98 -3 8 10 1 27 -14 18 -15 60 -40
93 -56z m5362 26 c21 -14 40 -28 43 -31 9 -10 -54 25 -75 41 -33 25 -9 18 32
-10z m-4614 -162 c34 -21 123 -71 197 -111 205 -112 210 -116 209 -154 0 -30
-1 -30 -10 -9 -6 17 -43 39 -126 79 -65 30 -125 61 -133 68 -8 7 -44 29 -80
48 -36 18 -108 57 -161 85 -53 29 -104 52 -115 51 -14 0 -12 -3 7 -9 14 -4 37
-15 52 -24 38 -25 101 -60 195 -105 45 -23 82 -43 82 -45 0 -6 -86 32 -211 92
-47 23 -98 42 -113 42 -31 0 -169 -74 -243 -129 -40 -31 -48 -43 -51 -75 -2
-20 2 -43 8 -51 8 -10 7 -15 -2 -19 -9 -4 -9 -5 2 -4 22 2 70 -23 64 -34 -3
-4 -11 -5 -17 -2 -7 4 -9 3 -4 -1 10 -11 -52 -75 -72 -74 -12 0 -11 2 3 8 11
4 20 19 22 37 2 24 1 26 -7 11 -6 -9 -7 -22 -4 -27 8 -13 -1 -13 -26 0 -13 8
-19 7 -19 0 0 -15 -25 -7 -138 46 -104 49 -156 57 -197 30 -15 -10 -29 -15
-32 -13 -11 12 21 49 75 85 70 48 338 193 407 220 28 11 88 38 134 60 l85 40
78 -39 c43 -22 106 -56 141 -77z m-638 98 c13 -5 14 -9 5 -9 -8 0 -24 4 -35 9
-13 5 -14 9 -5 9 8 0 24 -4 35 -9z m5380 -10 c3 -6 -1 -7 -9 -4 -18 7 -21 14
-7 14 6 0 13 -4 16 -10z m-5195 -30 c12 -8 11 -10 -5 -9 -11 1 -31 5 -45 9
-24 8 -24 8 5 9 17 0 37 -4 45 -9z m1700 0 c-8 -5 -19 -10 -25 -10 -5 0 -3 5
5 10 8 5 20 10 25 10 6 0 3 -5 -5 -10z m3555 0 c3 -6 -1 -7 -9 -4 -18 7 -21
14 -7 14 6 0 13 -4 16 -10z m3176 -97 c-24 -17 -44 2 -28 27 11 18 12 18 27 2
15 -15 15 -18 1 -29z m-7251 33 c0 -2 -8 -10 -17 -17 -16 -13 -17 -12 -4 4 13
16 21 21 21 13z m4270 -41 c0 -3 -18 4 -40 15 -22 11 -40 23 -40 25 0 3 18 -4
40 -15 22 -11 40 -23 40 -25z m-4970 -100 c107 -52 208 -99 224 -105 16 -6 27
-13 24 -16 -3 -2 -18 0 -33 6 -15 6 -52 13 -81 15 -29 3 -70 13 -91 21 -21 9
-35 13 -32 10 11 -12 -71 -84 -89 -79 -10 2 -27 0 -40 -4 -21 -8 -18 -12 38
-51 33 -24 60 -47 60 -52 0 -22 -20 -16 -76 21 -32 21 -62 39 -66 39 -16 0
-318 151 -318 158 0 11 133 95 191 122 26 12 54 18 69 14 14 -3 113 -47 220
-99z m645 96 c-17 -29 -242 -141 -281 -141 -36 0 -6 21 64 44 42 15 109 44
147 66 78 44 79 44 70 31z m-1915 -58 c18 -23 21 -37 17 -76 -4 -46 -3 -48 17
-42 12 4 30 9 41 12 56 13 84 -105 35 -146 -33 -27 -50 -26 -93 3 -35 24 -36
24 -28 3 12 -31 -11 -71 -48 -87 -26 -11 -35 -10 -57 5 -21 14 -25 23 -22 51
5 42 -4 43 -32 4 -27 -37 -34 -37 -71 -1 -49 50 -30 121 33 121 15 0 28 4 28
8 0 5 -13 7 -29 4 -25 -3 -30 0 -40 30 -6 19 -9 42 -5 51 10 27 54 50 85 43
18 -3 29 -1 29 6 0 20 35 37 77 38 34 0 46 -5 63 -27z m7569 -5 c-20 -39 -116
-154 -210 -252 -89 -94 -147 -135 -160 -114 -4 6 -12 7 -19 3 -48 -29 67 93
135 144 17 13 29 26 28 29 0 4 3 6 8 5 5 -2 9 4 9 13 0 8 3 13 8 11 4 -2 18 7
32 21 14 13 18 21 10 17 -8 -4 -5 2 8 14 12 12 22 26 22 32 0 6 4 8 9 5 4 -3
16 3 26 14 13 14 21 17 26 9 5 -8 8 -8 13 0 4 6 3 11 -2 11 -6 0 -12 7 -15 14
-4 10 -1 13 9 9 10 -4 12 0 7 13 -4 12 -3 15 5 10 7 -4 12 -14 12 -23 0 -11 6
-8 21 11 25 32 34 34 18 4z m-1559 -31 c190 -97 427 -221 453 -239 15 -11 24
-24 21 -29 -4 -7 -12 -5 -22 4 -16 13 -201 111 -442 234 -58 29 -106 58 -108
63 -6 17 10 11 98 -33z m2090 -73 c0 -7 -58 25 -65 36 -3 5 10 1 29 -11 20
-12 36 -23 36 -25z m-590 -24 c-30 -37 -40 -47 -40 -35 0 6 61 75 67 75 3 0
-10 -18 -27 -40z m-6200 -10 c0 -5 -4 -10 -10 -10 -5 0 -10 5 -10 10 0 6 5 10
10 10 6 0 10 -4 10 -10z m4476 1 c-9 -13 19 -32 38 -25 9 3 16 1 16 -5 0 -6 3
-10 8 -9 14 5 54 -30 47 -41 -3 -6 -4 -11 -1 -11 2 0 12 -3 22 -7 12 -4 15 -3
10 6 -6 10 -4 10 12 0 12 -7 18 -17 16 -21 -3 -4 4 -8 15 -8 11 0 23 -4 26
-10 10 -16 -41 -12 -55 5 -15 18 -31 20 -27 3 1 -8 -8 -13 -20 -12 -27 1 -28
-4 -6 -28 19 -21 39 -23 46 -5 2 7 8 8 13 3 5 -5 4 -11 -3 -13 -7 -3 -13 -11
-13 -20 0 -18 82 -95 127 -120 18 -10 33 -21 33 -26 0 -12 40 -46 68 -57 12
-5 32 -26 43 -45 12 -19 25 -36 30 -36 5 -1 12 -2 17 -3 4 0 20 -11 35 -22 20
-17 27 -31 27 -58 0 -20 5 -36 10 -36 6 0 10 -16 10 -36 0 -29 -3 -35 -16 -30
-9 4 -13 2 -8 -5 3 -6 18 -9 32 -6 45 9 56 -4 22 -24 -24 -15 -35 -17 -48 -8
-16 10 -15 10 1 5 11 -3 15 -2 12 4 -3 6 -15 10 -27 10 -20 0 -74 37 -71 48 1
4 -5 6 -14 4 -11 -3 -14 1 -9 13 5 13 2 15 -14 10 -13 -4 -20 -2 -20 6 0 7 -3
9 -7 6 -11 -11 -32 27 -33 58 0 23 -3 27 -10 15 -8 -13 -10 -13 -10 2 0 9 -5
20 -10 23 -7 4 -8 -3 -4 -20 5 -21 3 -27 -15 -32 -26 -7 -27 -20 -1 -28 51
-16 67 -72 28 -100 -14 -9 -24 -11 -26 -5 -2 5 -12 10 -22 10 -9 0 -23 7 -30
15 -19 23 -27 18 -22 -14 5 -38 -35 -69 -67 -51 -22 11 -37 52 -26 69 9 16 -2
13 -32 -6 -25 -17 -26 -17 -54 16 -15 19 -25 41 -22 50 3 12 2 12 -7 -2 -8
-12 -8 -22 -2 -30 6 -7 10 -29 10 -51 0 -21 5 -41 10 -45 6 -3 12 -19 14 -35
1 -16 9 -32 17 -34 10 -3 12 0 8 11 -4 11 -2 14 9 10 11 -4 12 -9 5 -16 -7 -7
-7 -15 2 -26 9 -11 9 -13 0 -8 -6 4 -15 2 -19 -4 -4 -6 1 -16 10 -21 9 -5 16
-14 16 -20 0 -7 -6 -6 -15 2 -13 11 -14 10 -9 -4 3 -9 12 -16 18 -16 8 0 12
-16 12 -42 0 -102 4 -128 18 -128 15 0 32 -35 28 -57 -2 -7 1 -13 6 -13 5 0
12 -12 15 -27 9 -45 66 -109 123 -139 60 -31 63 -31 164 36 64 42 83 49 98 37
17 -14 -21 -50 -145 -138 -78 -56 -99 -66 -114 -58 -11 5 -19 14 -19 18 0 5
-15 16 -32 25 -18 9 -55 31 -83 48 -27 17 -78 45 -112 64 -213 113 -281 155
-277 172 5 22 75 408 82 447 2 17 9 35 14 42 5 7 7 16 4 22 -6 9 5 77 39 261
9 47 23 127 31 178 15 104 18 112 42 112 15 0 15 2 2 10 -13 9 -13 11 0 20 19
12 23 12 16 1z m2456 -42 c16 -9 23 -8 29 2 11 18 10 0 -1 -26 -5 -11 -9 -15
-9 -8 -1 7 -13 19 -28 27 -16 8 -24 15 -20 16 5 0 18 -5 29 -11z m-813 -39
c-18 -22 -36 -40 -41 -40 -5 0 8 18 28 40 21 22 39 40 41 40 2 0 -11 -18 -28
-40z m-6245 18 c-5 -8 -1 -9 12 -4 14 5 16 4 8 -4 -12 -12 -47 -3 -38 11 3 5
10 9 15 9 6 0 7 -5 3 -12z m7156 -28 c12 -8 12 -10 -5 -10 -11 0 -27 5 -35 10
-12 8 -12 10 5 10 11 0 27 -5 35 -10z m208 -35 c-11 -20 -23 -34 -25 -31 -6 6
29 66 39 66 4 0 -2 -16 -14 -35z m-6676 -85 c5 0 6 -5 3 -10 -4 -6 -11 -7 -17
-4 -6 4 -8 2 -5 -3 4 -6 0 -17 -9 -24 -12 -10 -15 -10 -12 2 2 9 -4 13 -14 11
-10 -2 -18 2 -18 7 0 5 -9 13 -21 16 -13 4 -18 12 -15 21 3 9 1 12 -4 9 -6 -3
-10 -1 -10 4 0 6 -7 11 -16 11 -8 0 -12 -4 -9 -10 4 -6 -1 -7 -11 -3 -13 5
-15 3 -9 -8 4 -8 5 -11 0 -7 -4 4 -10 28 -11 52 l-4 44 87 -54 c47 -30 90 -54
95 -54z m4168 69 c0 -5 -6 -9 -12 -10 -10 0 -10 -2 0 -6 6 -2 9 -9 6 -15 -4
-6 2 -8 17 -4 19 6 21 5 7 -4 -25 -15 -44 -3 -44 29 0 20 4 27 13 24 7 -3 13
-9 13 -14z m-5087 -31 c17 -20 24 -73 10 -81 -15 -9 -52 12 -69 37 -23 36 -12
80 19 71 12 -4 30 -16 40 -27z m5976 6 c14 -12 -19 -1 -35 12 -18 14 -18 14 6
3 14 -6 27 -13 29 -15z m406 -14 c-3 -5 -11 -10 -16 -10 -6 0 -7 5 -4 10 3 6
11 10 16 10 6 0 7 -4 4 -10z m-544 -17 c31 -19 54 -71 45 -103 -19 -66 -19
-67 6 -39 32 37 61 50 98 43 60 -12 110 -85 110 -161 0 -34 -53 -83 -91 -83
-28 0 -30 2 -18 17 31 39 37 44 43 30 4 -6 4 -2 2 11 -2 12 0 20 5 16 5 -3 9
4 9 15 0 12 -4 21 -10 21 -5 0 -10 -5 -10 -11 0 -5 -5 -7 -11 -3 -8 4 -7 9 2
15 7 4 10 11 7 14 -9 9 -28 -3 -28 -18 0 -7 -20 -25 -45 -40 -47 -30 -57 -52
-27 -60 13 -4 11 -5 -5 -6 -28 -1 -28 -6 -3 -38 13 -17 20 -41 20 -71 0 -25
-3 -43 -6 -39 -3 3 -17 -6 -31 -21 -20 -21 -23 -23 -17 -7 13 36 16 73 7 78
-5 3 -14 -25 -19 -62 -8 -59 -7 -68 6 -65 8 3 2 -2 -15 -10 -56 -28 -149 -11
-181 32 -22 28 -17 98 8 122 13 12 17 20 9 20 -8 0 -11 6 -7 16 5 14 1 16 -26
10 -89 -19 -95 -19 -118 5 -15 16 -20 18 -13 6 5 -10 23 -27 39 -38 27 -17 27
-19 7 -19 -80 0 -142 107 -103 179 9 17 9 26 -2 39 -12 15 -11 16 5 3 15 -12
20 -11 40 8 26 24 84 28 120 10 21 -12 22 -11 4 8 -44 50 -27 135 36 173 40
25 118 26 158 3z m-798 0 c-7 -2 -19 -2 -25 0 -7 3 -2 5 12 5 14 0 19 -2 13
-5z m184 -50 c3 -7 -3 -9 -16 -6 -12 3 -21 10 -21 15 0 13 32 6 37 -9z m949
-24 c30 -17 53 -33 51 -36 -4 -3 -103 50 -116 63 -13 13 16 0 65 -27z m-6284
-44 c10 10 96 -33 107 -54 15 -27 4 -56 -15 -40 -8 6 -14 8 -14 4 0 -3 -19 10
-42 29 -42 36 -78 83 -78 101 0 6 8 -2 18 -18 10 -15 21 -25 24 -22z m8477
-32 c14 -11 14 -12 -1 -13 -11 0 -20 -11 -24 -26 l-7 -27 -14 27 c-7 14 -21
26 -29 26 -11 0 -7 9 13 29 24 25 29 27 37 12 5 -9 17 -21 25 -28z m-3124 -3
c3 -5 -1 -10 -9 -10 -9 0 -16 5 -16 10 0 6 4 10 9 10 6 0 13 -4 16 -10z m2666
-4 c5 3 9 0 9 -6 0 -6 4 -9 9 -6 5 3 14 -1 21 -9 10 -12 10 -15 -2 -15 -19 0
-58 29 -57 43 0 9 2 8 6 -1 2 -6 9 -10 14 -6z m-85 -53 c-2 -24 -25 -38 -39
-23 -9 8 -7 9 7 4 14 -5 17 -4 11 5 -6 10 7 29 21 31 1 0 1 -8 0 -17z m-971
-14 c22 -10 29 -16 15 -13 -28 7 -80 33 -65 33 6 0 28 -9 50 -20z m110 -35
l50 -14 -44 5 c-24 3 -51 10 -60 15 -23 13 -4 11 54 -6z m235 -35 c45 -7 39
-7 -35 -3 -49 2 -103 9 -120 14 -34 10 59 4 155 -11z m143 -16 c-7 -2 -21 -2
-30 0 -10 3 -4 5 12 5 17 0 24 -2 18 -5z m-8195 -18 c-42 -7 -97 -22 -122 -34
-51 -22 -53 -10 -3 16 50 25 77 31 142 31 l60 0 -77 -13z m7136 -10 c11 -8 16
-15 10 -15 -5 0 -18 7 -28 15 -11 8 -16 15 -10 15 5 0 18 -7 28 -15z m-6729
-40 c80 -39 105 -58 134 -106 l20 -33 -21 -23 c-12 -13 -25 -23 -29 -23 -5 0
-30 23 -56 51 -26 29 -69 66 -95 84 -27 17 -45 35 -40 39 4 4 3 6 -3 5 -5 -2
-34 3 -63 10 -61 15 -94 9 -139 -25 -35 -26 -46 -19 -15 10 70 63 190 67 307
11z m7624 19 c8 -7 -73 -2 -104 6 -19 5 -6 6 35 3 36 -3 67 -7 69 -9z m-5779
-19 c29 -15 62 -50 79 -82 16 -32 4 -28 -26 7 -56 67 -140 85 -253 55 -67 -18
-98 -40 -127 -91 -21 -36 -23 -37 -24 -14 0 22 -1 23 -8 6 -5 -13 -10 -16 -15
-8 -4 6 -22 19 -41 28 -19 9 -35 20 -35 24 0 4 21 13 48 19 26 7 90 25 142 41
52 16 106 31 120 33 36 7 111 -3 140 -18z m5848 8 c-10 -2 -26 -2 -35 0 -10 3
-2 5 17 5 19 0 27 -2 18 -5z m147 -3 c8 -13 -85 -13 -105 0 -11 7 1 10 42 10
31 0 60 -4 63 -10z m72 -6 c-3 -3 -12 -4 -19 -1 -8 3 -5 6 6 6 11 1 17 -2 13
-5z m50 -10 c-3 -3 -12 -4 -19 -1 -8 3 -5 6 6 6 11 1 17 -2 13 -5z m71 -11
c-10 -2 -26 -2 -35 0 -10 3 -2 5 17 5 19 0 27 -2 18 -5z m-748 -24 c17 -13 18
-17 5 -10 -33 17 -51 31 -40 31 6 0 21 -10 35 -21z m-7437 -15 c18 -9 50 -31
73 -50 31 -25 41 -40 41 -63 l0 -30 -46 38 c-70 57 -114 80 -166 88 -45 6 -46
7 -24 19 33 18 84 17 122 -2z m1795 -15 c-2 -6 -8 -11 -13 -11 -6 0 -16 -4
-22 -10 -9 -7 -13 -7 -13 0 0 11 28 31 43 32 5 0 7 -5 5 -11z m-2623 -19 c3
-5 1 -10 -4 -10 -6 0 -11 5 -11 10 0 6 2 10 4 10 3 0 8 -4 11 -10z m754 -35
c59 -29 94 -66 85 -89 -4 -9 -12 -15 -20 -12 -7 3 -18 -1 -24 -9 -8 -10 -8
-14 2 -18 7 -2 11 -7 8 -10 -3 -3 -30 15 -60 39 -79 67 -125 88 -193 88 -47 1
-54 3 -41 13 9 7 37 15 63 18 25 4 51 8 56 10 19 8 79 -7 124 -30z m1843 13
c-5 -7 -16 -32 -23 -55 -12 -44 -39 -59 -39 -23 0 31 28 92 39 86 5 -4 13 -1
16 5 4 5 9 8 12 5 3 -3 1 -11 -5 -18z m4750 -40 c-7 -7 -12 -8 -12 -2 0 14 12
26 19 19 2 -3 -1 -11 -7 -17z m2439 -133 c30 -179 -18 -326 -154 -467 -41 -43
-77 -78 -82 -78 -9 0 7 21 59 75 53 55 111 146 137 214 30 78 38 236 15 314
-9 31 -19 64 -21 74 -3 10 4 0 14 -22 11 -22 25 -71 32 -110z m-9169 74 c18
-12 24 -18 13 -14 -35 14 -124 13 -152 -2 -16 -7 -36 -23 -45 -34 -13 -16 -18
-17 -18 -6 0 21 29 53 65 72 37 20 92 13 137 -16z m7795 -63 c3 -33 1 -71 -4
-83 -6 -16 -8 -1 -8 50 0 39 -4 86 -8 102 -7 25 -6 27 4 11 6 -10 14 -46 16
-80z m-1566 55 c13 -11 21 -23 17 -27 -5 -4 -16 0 -26 9 -24 22 -81 21 -108
-1 -12 -9 -30 -33 -39 -52 -23 -46 -30 -50 -90 -50 -42 0 -59 6 -104 38 -29
20 -65 44 -80 52 l-26 15 29 3 c19 2 32 -2 38 -12 5 -9 30 -32 55 -51 74 -56
146 -47 167 22 20 63 117 95 167 54z m-404 -77 c15 -14 22 -22 14 -18 -12 6
-13 -4 -8 -57 6 -55 5 -61 -7 -49 -8 8 -21 38 -29 65 -8 28 -18 58 -22 68 -11
26 19 21 52 -9z m-6115 -79 c-80 -85 -97 -151 -68 -262 9 -34 10 -53 4 -53 -6
0 -8 -12 -5 -27 4 -19 -1 -13 -15 17 -13 27 -23 73 -26 117 -4 63 -1 79 21
126 28 55 124 160 139 151 5 -3 -18 -34 -50 -69z m6482 67 c-10 -6 -20 -27
-23 -45 -2 -18 -32 -67 -41 -67 -25 0 -4 95 24 108 25 12 57 16 40 4z m421
-29 c16 -4 17 -3 5 6 -22 15 -5 13 38 -5 l37 -15 -35 -31 c-42 -36 -226 -157
-243 -159 -7 -1 -25 -1 -41 0 -24 1 -28 4 -24 25 3 17 0 23 -11 22 -9 0 -15 4
-14 11 2 7 -4 10 -12 7 -21 -9 -64 22 -62 44 1 17 4 17 27 5 14 -7 34 -13 45
-12 l20 0 -20 9 c-14 6 -15 9 -4 9 8 1 20 -4 26 -10 9 -9 20 -9 43 1 27 11 33
11 42 -1 8 -11 9 -10 4 4 -8 26 13 44 46 39 24 -4 73 13 108 36 3 2 -4 11 -15
19 -20 16 -20 16 0 8 11 -4 29 -9 40 -12z m-4889 -20 c-10 -10 -19 5 -10 18 6
11 8 11 12 0 2 -7 1 -15 -2 -18z m4172 13 c47 -24 106 -29 147 -12 50 21 52
21 60 -15 6 -27 2 -36 -24 -63 -17 -17 -31 -25 -31 -17 0 10 -5 10 -24 -2 -23
-16 -24 -15 -30 18 -9 47 -26 54 -26 11 0 -71 -74 -66 -105 7 -12 29 -9 68 4
50 8 -11 52 -12 45 -1 -3 4 -12 8 -20 8 -8 0 -14 5 -14 11 0 6 -7 9 -15 5 -8
-3 -15 -1 -15 4 0 14 16 12 48 -4z m3202 0 c-14 -7 -38 -16 -55 -19 -26 -6
-25 -4 10 13 45 21 84 26 45 6z m-105 -35 c-12 -11 -158 -72 -162 -68 -2 3 71
38 137 65 32 14 36 14 25 3z m-2261 -7 c9 -3 13 -11 10 -16 -4 -6 2 -7 16 -3
15 5 20 4 16 -4 -5 -7 -1 -9 8 -5 41 16 7 -16 -70 -66 -47 -30 -97 -65 -110
-77 -30 -28 -66 -48 -78 -45 -5 2 -25 -8 -45 -21 -97 -63 -150 -99 -189 -127
-23 -16 -60 -39 -82 -50 -39 -20 -53 -40 -27 -40 12 0 134 69 232 131 92 58
230 148 273 179 23 16 45 30 48 30 3 0 20 11 39 25 40 31 76 39 98 22 15 -11
9 -17 -50 -57 -38 -25 -70 -47 -73 -50 -3 -3 -48 -32 -100 -64 -52 -33 -111
-71 -130 -85 -19 -14 -42 -30 -51 -36 -26 -16 -176 -114 -263 -173 -72 -48
-83 -52 -109 -42 -28 9 -117 87 -117 102 0 3 12 13 28 21 15 8 59 33 97 56 39
23 75 45 82 49 106 63 263 170 266 182 2 8 19 23 38 33 l34 19 -35 -31 c-35
-31 -34 -31 32 6 37 21 68 43 68 48 0 8 117 95 126 95 1 0 9 -3 18 -6z m-5489
-11 c-230 -49 -317 -76 -473 -145 -69 -31 -91 -45 -87 -56 5 -12 3 -13 -10 -2
-13 11 -25 9 -73 -13 -31 -14 -138 -63 -237 -108 -226 -102 -314 -143 -393
-181 -34 -17 -65 -28 -69 -24 -3 3 -4 8 -2 9 20 17 182 98 304 153 462 206
560 249 660 286 113 42 303 87 365 86 19 0 26 -2 15 -5z m122 -9 c-3 -3 -12
-4 -19 -1 -8 3 -5 6 6 6 11 1 17 -2 13 -5z m-1622 -57 c-72 -75 -78 -94 -60
-174 18 -78 55 -148 115 -215 58 -66 35 -60 -29 7 -82 87 -124 200 -107 291 6
27 23 52 63 91 67 65 81 65 18 0z m1706 34 c216 -74 338 -195 327 -324 -5 -55
-47 -135 -78 -145 -12 -4 -11 0 3 19 64 90 73 154 31 237 -42 84 -119 140
-274 199 -91 35 -98 45 -9 14z m7364 -30 c-6 -5 -53 -35 -105 -66 -52 -32
-147 -90 -210 -128 -63 -39 -227 -131 -365 -205 -137 -74 -254 -138 -260 -142
-5 -4 -30 -18 -55 -32 -25 -14 -85 -49 -135 -78 -49 -29 -119 -70 -155 -90
-268 -154 -450 -266 -808 -501 -97 -63 -222 -144 -277 -178 -55 -34 -136 -87
-180 -118 -44 -31 -73 -48 -65 -38 17 21 167 121 797 529 131 85 348 216 548
331 50 29 146 85 215 125 212 123 339 194 490 274 80 43 210 117 288 164 142
86 273 161 282 162 2 0 0 -4 -5 -9z m-6831 -56 c16 -24 15 -26 -3 -46 -37 -40
-76 -1 -46 45 21 32 28 32 49 1z m-1065 -19 c-2 -2 -15 -9 -29 -15 -24 -11
-24 -11 -6 3 16 13 49 24 35 12z m7203 -146 c4 0 8 -4 8 -10 0 -5 -13 -10 -29
-10 -17 0 -33 5 -36 10 -3 6 1 10 9 10 10 0 16 9 17 23 l0 22 11 -22 c6 -13
15 -23 20 -23z m-7557 -10 c-27 -12 -43 -12 -25 0 8 5 22 9 30 9 10 0 8 -3 -5
-9z m-149 -40 c7 -7 19 -8 36 -1 26 10 26 9 21 -32 -7 -50 -3 -43 -33 -51 -18
-6 -21 -5 -10 3 12 9 12 11 -3 17 -12 4 -14 10 -8 18 6 7 -29 -7 -77 -31 -48
-24 -104 -48 -126 -55 -21 -7 -41 -20 -45 -31 -7 -19 -8 -19 -14 -2 -10 25 4
38 64 59 29 11 54 26 56 36 3 11 13 15 31 13 34 -5 96 32 88 52 -6 17 5 20 20
5z m1834 -14 c0 -2 -7 -7 -16 -10 -8 -3 -12 -2 -9 4 6 10 25 14 25 6z m-1840
-56 c0 -5 -8 -10 -17 -10 -15 0 -16 2 -3 10 19 12 20 12 20 0z m1742 -3 c-6
-7 -30 -23 -54 -36 -52 -29 -43 -17 15 21 48 31 53 33 39 15z m3800 -61 c51
-41 87 -90 76 -101 -3 -3 -17 12 -31 34 -29 44 -105 101 -134 101 -10 0 -25
-5 -33 -10 -12 -7 -8 -10 14 -10 16 0 44 -11 62 -25 33 -26 80 -92 71 -101 -3
-3 -10 4 -17 15 -7 14 -20 21 -38 21 -15 -1 -39 1 -55 4 -15 2 -25 0 -22 -4 3
-5 1 -11 -5 -15 -5 -3 -10 -2 -10 3 0 4 -9 18 -19 29 -17 18 -18 23 -6 47 8
14 11 26 7 26 -4 0 2 7 12 15 34 26 71 18 128 -29z m2968 27 c0 -5 -17 -21
-38 -37 l-37 -28 35 35 c38 39 40 41 40 30z m-8802 -55 c-3 -9 -300 -167 -316
-168 -2 0 -2 5 0 11 3 10 290 164 311 168 5 0 7 -4 5 -11z m5619 -29 c37 -14
68 -44 97 -93 41 -72 40 -93 -2 -29 -43 65 -102 113 -139 113 -13 0 -23 5 -23
10 0 13 31 13 67 -1z m74 -16 c13 -16 12 -17 -3 -4 -10 7 -18 15 -18 17 0 8 8
3 21 -13z m-5921 -5 c0 -7 -31 -28 -68 -45 -37 -18 -81 -46 -99 -63 -18 -16
-37 -30 -43 -30 -18 0 -75 -66 -92 -106 -40 -98 -37 -93 -37 -54 -1 81 74 171
199 240 138 78 140 78 140 58z m277 -40 c-3 -7 -5 -2 -5 12 0 14 2 19 5 13 2
-7 2 -19 0 -25z m5555 -4 c18 -20 43 -47 56 -61 12 -13 22 -28 22 -34 0 -5
-10 -18 -22 -28 -30 -26 -297 -198 -488 -314 -66 -40 -173 -109 -360 -233
-126 -83 -120 -80 -120 -56 0 23 -116 122 -142 122 -21 0 -24 16 -4 23 7 3
150 90 317 194 167 104 348 216 402 248 54 33 117 72 140 87 88 56 142 87 154
87 7 1 27 -15 45 -35z m-5979 -101 c-30 -27 -78 -93 -102 -142 -19 -36 -21
-52 -16 -95 l7 -51 -20 19 c-12 10 -26 33 -32 52 -10 28 -8 41 10 81 25 58 51
87 109 124 50 32 74 38 44 12z m1317 1 c-81 -35 -204 -93 -330 -158 -74 -38
-198 -101 -275 -140 -209 -107 -336 -142 -485 -133 -47 3 -96 10 -110 16 -20
9 -16 9 25 4 82 -12 195 -5 280 16 58 15 164 63 385 174 253 128 393 191 510
230 33 11 33 4 0 -9z m70 -4 c-8 -5 -19 -10 -25 -10 -5 0 -3 5 5 10 8 5 20 10
25 10 6 0 3 -5 -5 -10z m7385 -23 c-82 -66 -179 -164 -211 -213 -42 -65 -68
-153 -62 -213 5 -53 43 -133 89 -190 17 -22 29 -47 27 -58 -2 -13 -14 0 -43
46 -22 34 -50 75 -62 90 l-22 26 0 -115 c-1 -136 13 -245 35 -278 9 -14 11
-21 5 -18 -6 4 -23 28 -38 54 -28 46 -28 50 -31 244 -4 221 3 275 51 370 35
70 159 202 241 256 63 41 73 40 21 -1z m-7446 -1 c-2 -2 -15 -9 -29 -15 -24
-11 -24 -11 -6 3 16 13 49 24 35 12z m4811 -36 c0 -16 -4 -30 -8 -30 -5 0 -7
14 -4 30 2 17 6 30 8 30 2 0 4 -13 4 -30z m-4906 -34 c-3 -9 -13 -16 -22 -16
-8 0 -12 -3 -9 -7 4 -3 -9 -17 -28 -30 -20 -13 -33 -28 -31 -32 3 -5 -12 -24
-33 -43 l-39 -34 -6 50 c-3 28 -2 54 3 59 10 10 164 77 168 73 2 -2 1 -11 -3
-20z m-207 -128 c-4 -48 -10 -66 -29 -81 -16 -13 -18 -17 -5 -13 33 11 18 -23
-23 -49 -46 -29 -70 -32 -70 -7 0 14 -2 15 -10 2 -7 -11 -10 5 -10 52 l0 67
73 45 c39 24 74 45 76 45 2 1 1 -27 -2 -61z m721 -86 c15 -10 72 -42 127 -71
55 -29 105 -57 110 -63 6 -6 -44 18 -110 52 -127 66 -175 105 -175 143 0 42
15 40 18 -2 2 -31 10 -45 30 -59z m-1912 -47 c2 -38 7 -83 9 -100 l5 -30 -17
25 c-14 20 -18 48 -20 130 -2 81 0 98 8 75 5 -16 12 -61 15 -100z m6004 115
c0 -5 -5 -10 -11 -10 -5 0 -7 5 -4 10 3 6 8 10 11 10 2 0 4 -4 4 -10z m-54
-25 c-11 -8 -24 -15 -30 -15 -5 0 -1 7 10 15 10 8 24 14 29 14 6 0 1 -6 -9
-14z m-4947 -82 c-3 -43 -9 -85 -12 -93 -6 -13 -226 -124 -233 -117 -1 1 -4
37 -5 80 l-4 78 55 23 c30 13 87 42 125 64 39 23 72 41 75 41 3 1 2 -34 -1
-76z m-297 -108 c-2 -17 -7 -34 -12 -39 -5 -5 -6 -14 -3 -22 3 -8 -11 -20 -36
-32 -33 -16 -41 -17 -41 -6 0 9 -12 14 -37 14 -21 1 -49 7 -63 15 l-25 14 24
1 c24 0 24 0 5 15 -10 8 -32 15 -49 16 -16 1 13 9 65 18 52 10 106 23 120 29
40 18 55 10 52 -23z m1492 -10 c11 -8 15 -15 10 -15 -6 0 -19 7 -30 15 -10 8
-14 14 -9 14 6 0 19 -6 29 -14z m104 -59 c28 -16 50 -31 48 -33 -3 -4 -105 53
-116 64 -8 9 12 0 68 -31z m2791 -13 c52 -38 72 -65 59 -80 -5 -7 -7 -16 -4
-22 8 -12 -39 -50 -73 -58 -14 -3 -29 -10 -32 -15 -3 -5 -16 -10 -27 -11 -12
-1 -22 -5 -22 -10 0 -4 -4 -6 -9 -2 -5 3 -13 1 -16 -5 -4 -6 -15 0 -27 15 -28
36 -54 31 -103 -17 -69 -69 -99 -94 -89 -76 12 22 290 308 300 308 4 0 23 -12
43 -27z m-3600 -78 c0 -5 -4 -3 -9 5 -5 8 -9 22 -9 30 0 16 17 -16 18 -35z
m226 -97 c87 -55 199 -120 470 -275 72 -41 135 -79 140 -85 6 -6 0 -5 -12 1
-13 6 -23 9 -23 6 0 -18 -329 171 -362 208 -9 10 -23 20 -30 21 -7 2 -26 8
-41 14 -16 7 -30 12 -32 12 -6 0 -152 94 -198 127 -21 15 -50 44 -65 63 l-26
35 44 -36 c25 -19 86 -60 135 -91z m750 92 c3 -6 -1 -7 -9 -4 -18 7 -21 14 -7
14 6 0 13 -4 16 -10z m110 -60 c3 -6 -1 -7 -9 -4 -18 7 -21 14 -7 14 6 0 13
-4 16 -10z m-1867 -49 c31 -21 174 -104 317 -184 143 -79 301 -169 350 -198
50 -29 178 -102 285 -162 107 -60 200 -113 206 -118 5 -4 136 -79 290 -165
390 -219 647 -365 794 -452 41 -24 107 -61 145 -81 81 -42 267 -151 510 -296
196 -118 430 -253 454 -263 18 -8 133 -75 381 -225 91 -54 203 -120 250 -147
l85 -49 -50 -21 c-28 -12 -69 -23 -92 -24 -45 -4 -60 -11 -273 -141 -153 -93
-208 -121 -219 -109 -3 4 0 9 6 11 7 3 46 26 85 52 40 26 123 77 185 115 62
37 124 79 138 93 24 24 26 25 50 9 29 -19 55 -20 90 -4 32 15 32 22 -6 48
l-30 22 -58 -31 c-33 -17 -64 -31 -71 -31 -6 0 -26 -10 -43 -22 -26 -19 -30
-19 -24 -4 4 10 3 15 -3 11 -6 -3 -10 -13 -10 -21 0 -8 -4 -14 -10 -14 -5 0
-10 5 -10 11 0 5 -5 7 -10 4 -6 -4 -8 -9 -6 -13 2 -4 -6 -7 -19 -7 -13 0 -23
5 -22 10 1 6 -17 9 -42 7 -28 -2 -47 2 -53 10 -6 10 -8 10 -8 -2 0 -13 -1 -13
-10 0 -9 13 -10 13 -10 0 0 -13 -1 -13 -10 0 -9 13 -10 13 -10 0 0 -13 -1 -13
-10 0 -6 10 -10 11 -10 3 0 -9 -12 -11 -43 -7 -23 3 -56 6 -74 7 -18 2 -35 6
-39 10 -4 4 -43 7 -86 7 -69 0 -78 2 -78 18 0 10 -11 25 -25 32 -30 16 -32 27
-4 35 11 4 18 9 16 12 -3 2 -24 -5 -46 -15 -23 -11 -41 -17 -41 -13 0 13 80
52 92 45 6 -4 8 -3 5 3 -4 6 40 39 98 74 104 63 132 88 58 51 -48 -24 -150
-79 -275 -149 -54 -30 -103 -53 -109 -51 -13 4 204 134 336 202 50 25 83 46
74 46 -40 0 -128 -37 -283 -120 l-169 -90 -106 62 c-184 107 -275 161 -294
173 -15 11 -11 16 40 47 32 20 81 48 108 62 98 53 224 130 221 134 -3 2 -60
-25 -128 -61 -67 -35 -170 -88 -228 -118 -58 -29 -108 -57 -111 -62 -4 -5 -12
-6 -18 -2 -8 4 0 13 21 24 18 10 101 55 183 101 83 45 181 98 219 117 69 35
70 35 104 18 35 -16 36 -16 61 10 l26 26 -25 19 c-33 25 -37 25 -79 -7 -34
-26 -79 -32 -91 -13 -3 5 -18 14 -34 20 -16 6 -104 55 -196 110 -92 55 -175
100 -184 100 -22 0 -252 -111 -378 -183 -54 -31 -100 -52 -103 -47 -3 4 64 48
148 96 83 48 187 109 229 135 71 44 80 47 108 36 25 -9 35 -9 57 5 39 24 39
35 -1 55 -35 16 -37 16 -58 -5 -13 -11 -82 -51 -153 -87 -72 -37 -173 -91
-226 -121 -52 -30 -102 -54 -110 -54 -8 0 -34 12 -59 26 -25 15 -65 38 -90 51
-101 56 -270 158 -270 163 0 3 59 39 130 79 72 41 128 76 126 78 -2 3 -71 -30
-152 -71 -81 -42 -149 -75 -150 -73 -4 3 51 36 286 167 91 50 175 102 188 113
l23 22 -21 17 c-31 25 -65 22 -84 -7 -16 -24 -16 -26 11 -38 l27 -12 -44 -8
c-25 -4 -51 -8 -58 -9 -6 -1 -10 -4 -7 -6 9 -9 -95 -63 -107 -56 -6 4 -8 3 -5
-3 4 -6 -16 -19 -46 -30 -42 -17 -53 -18 -55 -7 -4 17 -19 18 -25 2 -4 -10 -8
-9 -16 2 -15 21 -13 30 4 24 8 -4 15 -2 15 4 0 12 -34 22 -77 22 -24 0 -33 5
-33 16 0 21 -37 54 -59 53 -10 0 -6 -5 9 -11 l25 -11 -25 -5 c-13 -2 -26 1
-28 7 -2 6 -10 11 -17 11 -8 0 -17 4 -20 10 -3 5 0 7 8 4 8 -3 18 -1 22 5 10
17 -25 26 -46 13 -26 -17 -29 -15 -29 12 0 21 -5 24 -57 29 -61 6 -84 24 -53
41 90 51 131 78 127 83 -3 2 -74 -27 -159 -66 -169 -78 -172 -70 -5 15 59 30
131 69 160 85 29 17 60 33 69 36 9 3 19 11 21 17 12 30 -215 -74 -394 -180
-31 -19 -59 -34 -63 -34 -10 0 -227 121 -297 166 -37 23 -85 52 -108 63 -23
12 -41 25 -41 29 0 7 116 75 290 171 41 22 72 41 67 41 -10 0 -289 -142 -354
-180 -29 -18 -53 -28 -53 -23 0 11 159 106 305 183 120 63 115 59 87 67 -13 3
-55 21 -95 40 -39 19 -84 35 -100 35 -20 1 -26 5 -22 16 4 10 0 12 -11 8 -8
-3 -22 -6 -30 -6 -9 0 -13 -3 -11 -7 3 -5 -8 -8 -25 -9 -16 -1 -24 2 -18 6 9
5 9 9 1 14 -6 4 -15 5 -19 2 -4 -2 -8 7 -7 21 0 15 6 27 13 29 7 1 8 0 2 -3
-14 -7 -13 -20 3 -26 9 -3 13 2 12 16 -1 18 -8 22 -35 22 -18 0 -35 6 -37 13
-3 6 -10 12 -16 12 -8 0 -8 -3 0 -11 15 -15 5 -39 -14 -39 -8 0 -13 6 -10 13
3 9 -4 12 -27 9 -29 -3 -32 -1 -42 37 -8 29 -8 42 0 46 6 2 0 2 -14 -1 -14 -4
-107 -47 -207 -96 -101 -49 -188 -88 -194 -86 -16 5 234 142 361 198 50 22 52
25 28 28 -16 2 -28 7 -28 11 0 5 -37 27 -82 50 -123 62 -230 122 -276 154
l-40 28 -53 -34 c-170 -108 -444 -255 -455 -244 -7 7 49 45 318 213 128 80
240 152 248 160 8 8 16 14 18 14 2 0 29 -17 60 -39z m1907 29 c3 -6 -1 -7 -9
-4 -18 7 -21 14 -7 14 6 0 13 -4 16 -10z m6671 -25 c5 -12 9 -12 30 2 23 15
27 15 51 -3 37 -28 47 -60 25 -82 -17 -17 -17 -19 5 -36 50 -38 6 -101 -52
-74 -14 6 -25 15 -25 20 0 4 -7 8 -15 8 -8 0 -15 -6 -15 -13 0 -8 -8 -22 -19
-31 -40 -36 -97 24 -74 77 8 17 6 25 -10 38 -39 31 6 109 63 109 18 0 33 -6
36 -15z m-308 -94 c19 -41 26 -76 30 -145 4 -90 4 -93 -33 -165 -92 -183 -374
-383 -650 -461 -38 -11 -116 -25 -172 -31 l-103 -12 0 -142 c0 -137 -10 -228
-29 -270 -5 -11 -21 -45 -34 -75 -14 -30 -32 -64 -41 -75 -9 -11 -2 10 14 48
44 97 60 180 73 367 l12 165 35 3 c74 5 197 24 240 37 307 90 604 317 635 486
9 48 -15 139 -65 254 -33 74 -36 85 -16 60 32 -40 73 -119 91 -175 l14 -45 0
40 c1 50 -23 146 -50 200 l-20 40 22 -25 c12 -14 33 -49 47 -79z m-7733 43
c16 -25 16 -27 -3 -47 l-20 -20 -27 21 c-26 21 -26 21 -6 34 12 7 21 18 21 25
0 21 17 15 35 -13z m6775 -5 c80 -38 108 -63 116 -105 5 -26 1 -38 -20 -61
-14 -15 -26 -32 -26 -37 0 -16 -55 -57 -72 -52 -9 2 -15 -1 -12 -8 6 -14 104
-20 104 -6 0 15 77 12 109 -5 60 -31 82 -154 39 -223 -23 -37 -109 -85 -116
-63 -2 6 -14 11 -27 11 -14 0 -37 12 -53 28 -30 28 -118 92 -128 92 -3 0 4
-12 15 -26 34 -43 28 -89 -18 -135 -47 -47 -95 -52 -148 -16 -37 24 -48 52
-40 100 4 29 3 32 -24 34 -15 1 -31 -2 -34 -7 -4 -6 -15 -10 -26 -10 -10 0
-19 -5 -19 -10 0 -19 -40 10 -60 43 -24 39 -26 107 -5 148 30 57 121 88 176
59 18 -10 18 -9 -2 30 -33 63 -24 140 23 186 68 69 150 80 248 33z m-5243
-125 c-6 -6 -83 -40 -137 -61 -10 -4 -8 1 5 15 11 11 40 27 65 36 47 16 78 20
67 10z m5618 -34 c0 -8 -8 -16 -17 -18 -13 -2 -18 3 -18 18 0 15 5 20 18 18 9
-2 17 -10 17 -18z m-4337 -8 c2 -7 -3 -12 -12 -12 -9 0 -16 7 -16 16 0 17 22
14 28 -4z m-1149 -56 c53 -29 127 -70 166 -91 78 -42 145 -86 163 -108 13 -16
-8 -40 -68 -76 -57 -34 -62 -24 -12 23 l46 44 -26 23 c-14 12 -103 65 -199
117 -168 91 -195 99 -206 66 -1 -5 50 -37 115 -72 149 -80 212 -119 212 -133
0 -6 -15 -1 -32 10 -43 28 -276 152 -291 155 -7 2 -23 7 -37 13 -14 6 -32 12
-40 15 -17 5 73 68 98 68 8 0 57 -24 111 -54z m3766 -5 c24 -10 54 -16 71 -14
25 4 35 -1 53 -23 25 -32 36 -67 27 -91 -6 -15 -8 -15 -17 -3 -9 13 -10 13 -6
0 2 -8 -3 -24 -12 -34 -15 -18 -15 -19 4 -11 87 35 165 -15 165 -108 0 -40
-39 -103 -63 -101 -9 1 -15 -2 -12 -6 14 -23 -68 -26 -110 -4 -16 8 -55 17
-85 19 -72 4 -68 2 -73 23 -4 14 -5 13 -6 -4 0 -11 6 -29 14 -40 37 -49 7 -90
-63 -87 -59 2 -92 20 -99 55 -4 23 -11 28 -33 28 -32 0 -48 16 -56 57 -12 60
43 122 108 124 29 0 30 1 12 9 -79 32 -68 147 18 203 50 32 104 35 163 8z
m-6490 -59 c-3 -3 -11 0 -18 7 -9 10 -8 11 6 5 10 -3 15 -9 12 -12z m2179 -33
c-3 -5 3 -9 12 -9 16 0 67 -28 204 -110 25 -15 68 -40 95 -55 236 -131 438
-247 457 -262 7 -6 46 -27 85 -48 40 -21 71 -40 70 -41 -7 -7 -85 21 -112 41
-16 12 -39 25 -50 29 -38 14 -243 141 -239 148 3 4 -15 13 -38 20 -50 15 -124
55 -120 64 5 10 -20 24 -42 24 -25 0 -346 192 -346 207 0 7 7 10 15 7 8 -4 12
-10 9 -15z m-1374 -31 c-14 -11 -30 -16 -43 -12 -13 4 -17 2 -13 -5 5 -7 1 -9
-9 -5 -19 8 -19 7 24 29 19 10 30 12 26 5 -5 -8 -3 -11 6 -8 8 3 13 11 11 17
-1 7 2 9 9 5 9 -5 5 -13 -11 -26z m7510 8 c0 -8 -4 -18 -10 -21 -5 -3 -10 -4
-10 -1 0 2 -3 11 -6 20 -4 11 -1 16 10 16 9 0 16 -6 16 -14z m-5085 -34 c-3
-3 -11 0 -18 7 -9 10 -8 11 6 5 10 -3 15 -9 12 -12z m-2890 -104 c33 -15 32
-27 -1 -20 -18 3 -30 0 -36 -12 -5 -9 -17 -16 -26 -15 -14 0 -13 3 6 16 12 8
22 22 22 29 0 17 2 17 35 2z m8746 -39 c-13 -13 -17 -14 -24 -2 -5 7 -5 23 -2
34 7 20 7 20 25 2 16 -17 16 -19 1 -34z m-7896 21 c2 -4 -8 -7 -24 -6 -17 1
-27 6 -24 12 4 12 40 8 48 -6z m6339 5 c-4 -8 -13 -15 -21 -15 -13 0 -13 3 -3
15 7 8 16 15 21 15 5 0 6 -7 3 -15z m-404 -75 l-25 -25 -22 22 c-12 13 -28 23
-35 23 -7 1 -1 7 13 15 15 8 29 21 32 29 5 13 12 10 34 -12 l28 -27 -25 -25z
m-6720 57 c0 -2 -15 -14 -32 -27 -27 -19 -30 -20 -18 -4 21 27 50 45 50 31z
m76 -57 l41 -24 -25 -28 c-14 -15 -29 -25 -34 -22 -5 3 -2 14 7 24 20 22 14
35 -25 55 -27 14 -30 14 -44 -7 -9 -12 -19 -19 -22 -15 -11 11 27 47 45 44 9
-2 34 -14 57 -27z m237 -135 l88 -48 -41 -18 c-44 -20 -82 -26 -42 -7 29 15
28 32 -5 57 l-26 21 -22 -20 c-29 -27 -55 -27 -30 0 22 25 14 45 -21 54 -20 5
-30 3 -36 -8 -5 -9 -19 -16 -30 -16 l-21 0 21 23 c21 22 21 24 4 42 -13 14 -6
12 28 -7 25 -14 85 -47 133 -73z m5827 -21 c0 -2 -13 -4 -30 -4 -16 0 -30 4
-30 8 0 5 14 7 30 4 17 -2 30 -6 30 -8z m-325 -1 c-363 -29 -707 -154 -1185
-431 -199 -115 -272 -164 -325 -217 l-40 -40 4 -180 c1 -99 7 -185 12 -192 6
-6 39 -21 74 -34 38 -13 65 -29 65 -37 0 -7 -3 -12 -7 -10 -5 2 -33 15 -63 30
-30 15 -70 32 -87 38 l-33 12 0 175 c0 138 3 180 15 204 42 81 523 369 850
510 290 124 494 178 670 176 50 0 72 -2 50 -4z m-5355 -58 c14 -8 23 -15 20
-15 -32 -8 -53 -4 -61 12 -12 22 5 24 41 3z m5300 -4 c0 -10 -167 -27 -176
-18 -3 3 32 9 78 15 46 5 86 10 91 11 4 0 7 -3 7 -8z m155 -10 c53 -8 55 -9
19 -10 -57 -1 -134 10 -134 20 0 5 12 6 28 3 15 -2 54 -9 87 -13z m392 -7 c-3
-3 -12 -4 -19 -1 -8 3 -5 6 6 6 11 1 17 -2 13 -5z m-5887 -14 c0 -5 -9 -10
-21 -10 -11 0 -17 5 -14 10 3 6 13 10 21 10 8 0 14 -4 14 -10z m90 6 c0 -3 -4
-8 -10 -11 -5 -3 -10 -1 -10 4 0 6 5 11 10 11 6 0 10 -2 10 -4z m5507 -2 c-3
-3 -12 -4 -19 -1 -8 3 -5 6 6 6 11 1 17 -2 13 -5z m221 -44 c29 -7 51 -14 49
-17 -11 -11 -177 45 -177 60 0 4 17 -1 38 -11 20 -11 61 -25 90 -32z m109 44
c-3 -3 -12 -4 -19 -1 -8 3 -5 6 6 6 11 1 17 -2 13 -5z m155 -33 c169 -41 170
-41 113 -35 -50 6 -246 52 -254 60 -9 8 21 3 141 -25z m-5936 -3 c19 -21 19
-21 -1 -14 -11 5 -28 11 -37 13 -10 3 -15 9 -12 14 9 15 30 10 50 -13z m-580
-47 c14 -11 36 -21 48 -22 21 0 21 0 -1 -9 -18 -7 -109 -7 -188 1 -5 0 8 6 30
12 30 9 44 20 55 45 12 29 15 31 21 14 4 -11 20 -29 35 -41z m6404 45 c0 -3
-4 -8 -10 -11 -5 -3 -10 -1 -10 4 0 6 5 11 10 11 6 0 10 -2 10 -4z m-3590 -50
c39 -23 41 -26 15 -20 -36 8 -105 44 -105 56 0 10 34 -4 90 -36z m-2170 24
c13 -8 10 -14 -15 -34 -37 -30 -48 -25 -28 14 16 33 20 35 43 20z m5785 -21
l20 -8 -20 1 c-11 0 -42 6 -70 13 l-50 14 50 -6 c28 -3 59 -9 70 -14z m-5691
-39 c25 -17 80 -51 123 -75 63 -36 73 -45 51 -45 -15 0 -30 -4 -33 -10 -3 -5
-13 -10 -22 -10 -14 0 -14 2 1 19 17 19 17 20 -13 35 -38 20 -60 20 -67 1 -4
-8 -10 -12 -16 -9 -5 3 -5 11 0 17 16 23 7 42 -20 45 -16 2 -28 7 -28 12 0 5
-9 12 -20 15 -20 6 -29 35 -11 35 6 0 30 -14 55 -30z m4516 26 c0 -2 -7 -7
-16 -10 -8 -3 -12 -2 -9 4 6 10 25 14 25 6z m-4598 -58 c-7 -7 -12 -8 -12 -2
0 6 3 14 7 17 3 4 9 5 12 2 2 -3 -1 -11 -7 -17z m48 -12 c0 -11 -19 -15 -25
-6 -3 5 1 10 9 10 9 0 16 -2 16 -4z m300 -118 c0 -4 -7 -8 -15 -8 -9 0 -18 -7
-21 -15 -4 -8 -11 -15 -17 -15 -5 0 -2 9 8 20 18 20 18 21 -1 35 -17 13 -16
13 14 3 17 -7 32 -16 32 -20z m-466 -114 c50 -20 95 -40 99 -44 8 -7 -73 -70
-90 -70 -4 0 7 10 25 21 17 12 32 26 32 31 0 7 -5 6 -14 -1 -7 -6 -22 -8 -31
-4 -13 4 -16 3 -10 -6 6 -10 3 -11 -13 -2 -28 15 -35 28 -17 34 9 4 12 1 8 -9
-6 -17 13 -19 21 -1 5 10 7 10 12 0 3 -7 10 -13 16 -13 25 0 -17 30 -51 36
-20 4 -50 13 -68 20 -26 11 -33 11 -43 -1 -6 -8 -9 -19 -5 -26 5 -8 1 -9 -14
-4 -13 4 -21 2 -21 -5 0 -6 -10 -15 -22 -20 -15 -5 -17 -9 -8 -10 23 -3 -31
-18 -67 -19 -18 -1 -33 2 -33 7 1 12 164 121 184 121 10 1 60 -15 110 -35z
m771 16 c3 -6 -1 -7 -9 -4 -18 7 -21 14 -7 14 6 0 13 -4 16 -10z m-875 -36 c0
-8 -5 -12 -10 -9 -6 4 -8 11 -5 16 9 14 15 11 15 -7z m810 -4 c12 -8 9 -10
-12 -10 -16 0 -28 5 -28 10 0 13 20 13 40 0z m6833 -184 c-9 -5 -19 -4 -26 3
-8 8 -8 11 1 11 7 0 12 8 12 17 0 15 2 14 14 -3 13 -16 12 -20 -1 -28z m-3636
-109 c3 -4 -3 -7 -15 -7 -21 0 -132 45 -132 53 0 6 138 -38 147 -46z m1612
-11 c26 -106 71 -156 154 -170 20 -4 37 -11 37 -16 0 -25 -116 -11 -159 20
-16 10 -31 17 -34 14 -3 -3 -3 3 0 15 3 12 1 21 -6 21 -6 0 -11 -6 -11 -13 0
-8 -9 -22 -20 -32 -11 -10 -17 -22 -13 -28 3 -6 1 -7 -6 -3 -7 4 -19 5 -27 2
-12 -5 -10 -11 13 -30 16 -13 35 -36 42 -50 8 -14 17 -23 21 -21 4 2 5 -8 3
-23 -4 -21 -2 -24 6 -12 6 8 11 22 11 30 0 8 13 28 30 45 l29 30 -24 11 c-20
10 -22 9 -17 -4 4 -10 1 -13 -7 -8 -7 5 -10 14 -7 22 3 7 1 16 -4 19 -6 4 -10
11 -10 17 0 6 10 2 23 -10 12 -12 40 -25 62 -30 l39 -8 -36 -21 c-41 -24 -64
-55 -84 -111 -7 -20 -13 -30 -14 -22 0 12 -2 12 -8 2 -6 -9 -13 0 -21 28 -22
74 -64 108 -181 147 -8 3 7 12 35 20 98 29 154 99 155 193 0 53 13 43 29 -24z
m-1473 -55 c137 -59 204 -92 204 -102 0 -13 1 -13 -117 42 -59 28 -127 60
-150 70 -40 17 -54 29 -35 29 5 0 49 -17 98 -39z m-386 5 c0 -2 -7 -7 -16 -10
-8 -3 -12 -2 -9 4 6 10 25 14 25 6z m1248 -68 c-2 -50 -6 -63 -20 -66 -16 -3
-18 5 -18 62 0 60 2 66 20 66 19 0 21 -5 18 -62z m1692 57 c0 -15 -396 -252
-406 -243 -2 3 49 35 115 71 65 37 157 91 203 121 91 60 88 58 88 51z m-2993
-11 c-3 -3 -12 -4 -19 -1 -8 3 -5 6 6 6 11 1 17 -2 13 -5z m-124 -31 c-7 -2
-19 -2 -25 0 -7 3 -2 5 12 5 14 0 19 -2 13 -5z m-2702 -42 c32 -33 38 -75 14
-107 -24 -32 -17 -39 11 -10 37 36 78 35 114 -4 15 -16 30 -40 32 -52 7 -36
-10 -86 -33 -99 -23 -12 -69 -4 -69 11 0 11 -59 50 -75 50 -5 0 5 -12 23 -26
28 -22 47 -54 23 -40 -5 4 -7 -11 -4 -33 7 -50 -16 -84 -66 -100 -43 -13 -65
-8 -98 22 -24 22 -33 90 -13 102 6 3 10 14 9 23 0 11 -3 12 -6 5 -2 -8 -23
-13 -46 -14 -30 0 -36 -3 -23 -8 26 -10 31 -50 9 -67 -22 -16 -74 -18 -106 -3
-30 13 -57 59 -57 94 0 25 28 85 40 85 3 0 11 4 19 9 11 7 9 14 -9 39 -29 39
-21 92 17 122 29 22 101 28 121 8 8 -8 17 -7 34 5 13 9 42 16 66 16 35 1 49
-5 73 -28z m2622 22 c-7 -2 -21 -2 -30 0 -10 3 -4 5 12 5 17 0 24 -2 18 -5z
m-88 -14 c-22 -4 -60 -7 -85 -7 l-45 1 55 7 c30 4 69 7 85 7 24 1 23 -1 -10
-8z m-3115 -3 c0 -3 -4 -8 -10 -11 -5 -3 -10 -1 -10 4 0 6 5 11 10 11 6 0 10
-2 10 -4z m2953 -13 c-13 -2 -33 -2 -45 0 -13 2 -3 4 22 4 25 0 35 -2 23 -4z
m2352 -13 c3 -5 1 -10 -4 -10 -6 0 -11 5 -11 10 0 6 2 10 4 10 3 0 8 -4 11
-10z m-1167 -35 c20 -13 98 -55 172 -92 l135 -69 0 -149 1 -150 -3 140 -4 140
-107 50 c-59 27 -135 69 -169 92 -33 23 -64 39 -67 36 -3 -4 -6 1 -6 10 0 22
4 22 48 -8z m193 -31 c338 -183 563 -245 903 -246 269 0 442 38 709 156 20 9
37 14 37 10 0 -9 -140 -70 -235 -102 -157 -52 -285 -74 -457 -80 -239 -7 -441
23 -633 94 -139 51 -454 214 -414 214 3 0 43 -21 90 -46z m974 37 c3 -5 2 -12
-3 -15 -5 -3 -9 1 -9 9 0 17 3 19 12 6z m-1021 -57 c3 -8 2 -12 -4 -9 -6 3
-10 10 -10 16 0 14 7 11 14 -7z m-2674 -84 c0 -5 -4 -10 -10 -10 -5 0 -10 5
-10 10 0 6 5 10 10 10 6 0 10 -4 10 -10z m2317 -96 c40 -24 77 -44 81 -44 5 0
17 -10 28 -22 16 -18 11 -17 -36 9 -175 95 -250 139 -250 146 0 9 83 -32 177
-89z m632 11 c51 -18 65 -19 56 -5 -3 6 -1 10 5 10 7 0 9 -7 6 -15 -6 -16 10
-25 67 -39 20 -5 27 -3 27 9 0 8 5 15 10 15 6 0 10 -8 10 -18 0 -17 15 -25 98
-48 6 -2 12 -8 12 -15 0 -6 -7 -8 -16 -5 -9 4 -58 18 -108 32 -118 34 -236 90
-236 111 0 16 1 16 13 0 6 -9 32 -23 56 -32z m-2829 20 c17 -9 30 -18 30 -20
0 -6 -52 16 -64 27 -16 13 3 9 34 -7z m130 -73 l21 -17 -30 -23 c-17 -12 -31
-20 -31 -16 0 4 8 13 17 19 17 12 17 14 -1 34 -23 26 -7 28 24 3z m-547 -112
c66 -58 51 -62 -22 -6 -33 25 -64 46 -70 46 -20 0 -60 -23 -55 -31 3 -5 -1 -6
-9 -4 -15 6 -70 -19 -61 -27 3 -4 -3 -5 -13 -4 -11 0 -18 -5 -17 -16 2 -23 -5
-22 -35 1 l-25 19 45 23 c24 13 71 36 104 50 68 31 63 33 158 -51z m657 40
c14 -11 30 -20 35 -20 6 0 20 -8 33 -18 l23 -18 -22 0 c-12 0 -33 11 -45 23
-24 24 -44 25 -81 5 -15 -9 -23 -9 -23 -2 0 6 7 13 15 16 8 4 15 12 15 20 0
20 21 17 50 -6z m2265 -59 c125 -75 201 -112 209 -103 3 3 6 -3 6 -12 0 -14
-26 -4 -132 52 -192 101 -217 116 -222 129 -7 18 16 7 139 -66z m780 49 c7
-12 -22 -12 -50 0 -17 7 -15 9 12 9 17 1 35 -3 38 -9z m-2868 -97 c-6 -5 -77
29 -77 38 0 3 18 -3 40 -14 23 -11 39 -21 37 -24z m-67 -23 c-8 -5 -19 -10
-25 -10 -5 0 -3 5 5 10 8 5 20 10 25 10 6 0 3 -5 -5 -10z m115 -8 c-3 -3 -11
0 -18 7 -9 10 -8 11 6 5 10 -3 15 -9 12 -12z m49 -31 c-2 -3 -12 3 -22 13 -16
17 -16 18 5 5 12 -7 20 -15 17 -18z m196 -26 c0 -8 -7 -15 -15 -15 -13 0 -14
3 -3 15 16 18 18 18 18 0z m2100 -19 c19 -8 73 -29 120 -45 47 -16 78 -30 70
-30 -30 0 -234 74 -238 88 -3 8 -1 12 4 9 5 -3 25 -13 44 -22z m-622 -21 c12
-14 22 -35 22 -46 0 -28 -29 -69 -44 -63 -10 4 -13 -5 -12 -32 1 -31 -4 -40
-26 -53 -35 -20 -62 -6 -66 33 -4 29 -16 33 -38 11 -36 -35 -74 -1 -74 66 0
54 66 99 98 67 9 -9 12 -9 12 2 0 7 8 22 17 33 24 26 80 17 111 -18z m-1552
-24 c-4 -6 -13 -11 -19 -11 -7 0 -6 4 3 10 11 7 11 10 2 10 -7 0 -10 5 -6 11
4 7 10 7 16 1 6 -6 7 -15 4 -21z m61 -17 c-3 -3 -12 -4 -19 -1 -8 3 -5 6 6 6
11 1 17 -2 13 -5z m1901 -95 c3 -8 1 -11 -3 -7 -4 4 -45 -13 -90 -37 -81 -44
-115 -54 -115 -36 0 11 181 102 194 98 5 -2 12 -10 14 -18z m-2393 -24 c88
-34 89 -34 44 -32 -26 1 -45 5 -43 8 2 4 -16 12 -40 19 -42 11 -47 10 -131
-30 -123 -59 -135 -37 -13 24 51 25 93 46 93 46 0 0 41 -16 90 -35z"/>
<path d="M6441 8954 c-181 -48 -347 -207 -397 -381 -12 -43 -15 -81 -11 -157
7 -141 50 -261 131 -366 19 -24 32 -49 29 -55 -4 -5 -3 -7 2 -3 4 4 34 -15 66
-42 73 -61 131 -95 203 -120 72 -26 242 -45 276 -31 21 8 17 10 -30 11 -73 1
-165 23 -246 60 -60 27 -77 50 -37 50 14 0 13 3 -3 21 -19 22 -19 22 4 10 15
-8 22 -8 22 -1 0 6 -11 15 -24 19 -13 5 -26 16 -29 24 -11 28 7 27 37 -2 76
-73 242 -127 355 -116 239 25 397 177 431 413 41 295 -191 617 -484 671 -82
15 -230 13 -295 -5z m-171 -695 c7 -11 19 -30 28 -42 90 -113 186 -183 299
-217 37 -12 89 -28 115 -36 26 -8 56 -14 68 -14 18 0 19 -3 10 -20 -13 -24
-55 -26 -146 -6 -104 22 -167 59 -253 149 -97 100 -117 126 -136 171 -16 38
-3 50 15 15z m235 -136 c99 -58 168 -76 305 -78 122 -1 153 2 144 16 -3 5 3 6
13 2 28 -11 -34 -33 -77 -27 -25 3 -29 2 -15 -4 15 -7 9 -10 -29 -15 -81 -11
-119 -8 -205 18 -98 29 -174 69 -206 107 -14 16 -28 29 -32 29 -12 1 -43 31
-43 41 0 5 17 -3 38 -20 20 -16 69 -47 107 -69z"/>
<path d="M6778 8023 c7 -3 16 -2 19 1 4 3 -2 6 -13 5 -11 0 -14 -3 -6 -6z"/>
<path d="M8250 8616 c0 -2 8 -10 18 -17 15 -13 16 -12 3 4 -13 16 -21 21 -21
13z"/>
<path d="M7370 8582 c0 -11 6 -49 14 -84 8 -35 18 -93 21 -130 6 -51 11 -68
23 -68 33 0 -5 258 -43 290 -12 10 -15 9 -15 -8z"/>
<path d="M5370 8361 c0 -6 4 -13 10 -16 6 -3 7 1 4 9 -7 18 -14 21 -14 7z"/>
<path d="M5380 8315 c-7 -9 -11 -17 -9 -20 3 -2 10 5 17 15 14 24 10 26 -8 5z"/>
<path d="M5656 8239 c-24 -19 -96 -130 -96 -148 0 -4 18 -13 39 -20 22 -6 53
-27 71 -47 26 -30 31 -43 28 -77 -2 -33 -7 -42 -25 -47 -20 -4 -93 -79 -93
-94 0 -14 40 -4 74 19 77 52 183 41 236 -24 17 -19 30 -42 30 -51 0 -12 10
-14 49 -12 32 3 57 -1 73 -12 23 -15 25 -14 56 19 17 19 28 35 23 35 -5 0 -14
-7 -21 -15 -16 -19 -30 -10 -30 19 0 68 -179 416 -238 464 -9 7 -44 12 -83 12
-52 0 -72 -4 -93 -21z m123 -164 c34 -17 77 -69 121 -148 46 -81 32 -81 -20 0
-24 38 -65 89 -92 116 -52 50 -53 55 -9 32z"/>
<path d="M4363 8160 c26 -5 67 -18 90 -30 41 -20 41 -20 17 0 -30 24 -83 40
-125 39 -22 -1 -17 -4 18 -9z"/>
<path d="M5165 8120 c-8 -48 -49 -80 -103 -80 -18 0 -31 -4 -28 -8 3 -5 20 -7
38 -5 29 3 30 2 11 -7 -17 -7 -23 -18 -23 -42 l0 -33 13 25 c7 15 29 31 54 39
l41 15 6 64 c8 73 2 94 -9 32z"/>
<path d="M7600 8096 c-113 -30 -211 -110 -264 -214 -30 -59 -56 -171 -56 -240
1 -119 73 -299 157 -392 61 -67 142 -124 225 -158 83 -33 237 -42 320 -18 117
34 221 130 264 246 25 64 25 254 0 335 -21 72 -75 173 -126 238 -132 166 -348
250 -520 203z m-9 -904 c43 -29 116 -62 179 -82 20 -7 21 -8 5 -9 -11 0 -39 8
-62 19 -24 10 -43 17 -43 14 0 -8 -85 38 -122 68 -20 16 -56 52 -79 81 l-43
52 60 -56 c32 -31 80 -70 105 -87z"/>
<path d="M5466 8063 c-6 -14 -5 -15 5 -6 7 7 10 15 7 18 -3 3 -9 -2 -12 -12z"/>
<path d="M3897 8033 c-4 -3 -7 -36 -7 -73 0 -62 1 -67 30 -83 33 -20 43 -44
10 -27 -47 25 -10 -43 55 -101 16 -15 31 -26 32 -25 1 1 -5 21 -13 45 -8 24
-12 52 -8 63 3 11 3 62 -1 114 l-7 94 -43 0 c-23 0 -45 -3 -48 -7z"/>
<path d="M3797 8023 c-14 -4 -18 -13 -15 -41 4 -49 19 -64 58 -57 24 4 30 2
24 -7 -5 -10 -4 -10 6 -1 8 8 10 26 5 62 -6 47 -9 51 -33 50 -15 -1 -35 -3
-45 -6z"/>
<path d="M3670 7970 c0 -33 -3 -40 -20 -40 -16 0 -20 7 -20 35 0 34 -1 35 -27
29 -33 -8 -43 -20 -43 -51 0 -21 5 -23 54 -23 30 0 57 4 60 9 3 4 19 11 36 14
25 6 30 11 30 37 0 28 -3 30 -35 30 -34 0 -35 -1 -35 -40z"/>
<path d="M5401 7991 c-21 -6 -20 -8 18 -24 48 -21 71 -59 71 -114 0 -28 3 -34
10 -23 14 22 12 77 -5 110 -14 26 -52 61 -65 59 -3 -1 -16 -4 -29 -8z"/>
<path d="M3452 7948 c-11 -40 -7 -48 21 -48 33 0 45 12 49 45 3 27 0 30 -29
33 -29 3 -33 0 -41 -30z"/>
<path d="M4584 7905 c0 -41 2 -72 5 -69 6 6 8 13 10 45 0 11 6 17 11 14 15 -9
12 22 -5 55 -9 17 -17 30 -18 30 -1 0 -2 -34 -3 -75z"/>
<path d="M5301 7949 c-16 -45 -16 -45 33 -97 25 -26 47 -59 50 -72 8 -32 -12
-71 -44 -87 -22 -11 -22 -13 -5 -13 25 0 37 8 58 40 31 45 22 78 -34 130 -57
52 -59 73 -12 110 14 11 20 20 13 20 -8 0 -22 -8 -32 -17 -18 -16 -18 -16 -12
0 3 9 4 17 1 17 -3 0 -10 -14 -16 -31z"/>
<path d="M3340 7924 c0 -35 1 -35 33 -29 41 9 41 9 33 40 -5 20 -13 25 -36 25
-28 0 -30 -3 -30 -36z"/>
<path d="M3243 7940 c-16 -6 -23 -18 -23 -35 0 -21 5 -25 29 -25 21 0 30 6 35
23 13 48 5 55 -41 37z"/>
<path d="M4512 7925 c0 -16 2 -22 5 -12 2 9 2 23 0 30 -3 6 -5 -1 -5 -18z"/>
<path d="M3110 7904 c-20 -52 -13 -62 34 -44 20 7 26 16 26 40 0 25 -4 30 -25
30 -18 0 -28 -7 -35 -26z"/>
<path d="M6450 7926 c0 -2 7 -7 16 -10 8 -3 12 -2 9 4 -6 10 -25 14 -25 6z"/>
<path d="M2997 7903 c-4 -3 -7 -19 -7 -35 0 -25 3 -28 34 -28 36 0 51 18 41
51 -6 19 -54 27 -68 12z"/>
<path d="M2903 7893 c-19 -4 -23 -11 -23 -39 0 -29 3 -34 24 -34 41 0 56 11
56 40 0 16 -7 30 -16 34 -9 3 -16 5 -17 5 -1 -1 -12 -4 -24 -6z m34 -39 c-3
-3 -12 -4 -19 -1 -8 3 -5 6 6 6 11 1 17 -2 13 -5z"/>
<path d="M2782 7872 c-8 -5 -10 -19 -6 -40 7 -33 13 -36 52 -26 19 5 23 12 20
38 -2 25 -8 32 -28 34 -14 1 -31 -2 -38 -6z m48 -32 c0 -5 -2 -10 -4 -10 -3 0
-8 5 -11 10 -3 6 -1 10 4 10 6 0 11 -4 11 -10z"/>
<path d="M2690 7825 c0 -34 2 -36 28 -33 23 3 27 8 27 33 0 25 -4 30 -27 33
-26 3 -28 1 -28 -33z"/>
<path d="M2564 7826 c-7 -18 -2 -47 9 -47 4 1 21 1 37 1 27 0 30 3 30 30 0 28
-3 30 -35 30 -22 0 -38 -6 -41 -14z"/>
<path d="M2466 7817 c-11 -8 -17 -23 -14 -38 2 -20 8 -23 33 -20 41 4 45 8 45
42 0 24 -4 29 -23 29 -13 0 -31 -6 -41 -13z"/>
<path d="M2355 7802 c-6 -4 -12 -19 -13 -34 -3 -26 -1 -28 32 -28 34 0 36 2
36 35 0 30 -3 35 -22 35 -13 0 -28 -4 -33 -8z"/>
<path d="M6228 7793 c7 -3 16 -2 19 1 4 3 -2 6 -13 5 -11 0 -14 -3 -6 -6z"/>
<path d="M2227 7784 c-4 -4 -7 -20 -7 -36 0 -30 12 -34 58 -22 18 5 22 13 20
33 -2 21 -9 27 -33 29 -17 2 -34 0 -38 -4z"/>
<path d="M2101 7761 c-13 -9 -7 -71 7 -71 37 1 52 14 52 46 0 29 -4 34 -22 34
-13 0 -29 -4 -37 -9z"/>
<path d="M1977 7743 c-11 -10 -8 -91 3 -98 5 -3 23 1 40 10 26 13 30 21 30 55
0 39 -1 40 -33 40 -19 0 -37 -3 -40 -7z"/>
<path d="M1855 7720 c-3 -6 -3 -42 1 -80 6 -62 9 -71 30 -76 53 -13 59 -5 55
76 -2 41 -5 78 -8 83 -6 11 -71 9 -78 -3z"/>
<path d="M6354 7670 c4 -23 1 -42 -13 -64 -10 -17 -22 -42 -26 -55 l-8 -25 32
27 c34 29 55 33 93 18 20 -7 24 -6 25 10 1 10 -2 19 -8 19 -5 0 -9 -4 -9 -10
0 -5 -7 -7 -15 -4 -20 8 -55 70 -44 81 5 5 0 14 -13 22 -20 12 -21 12 -14 -19z"/>
<path d="M4125 7670 c3 -5 8 -10 11 -10 2 0 4 5 4 10 0 6 -5 10 -11 10 -5 0
-7 -4 -4 -10z"/>
<path d="M1864 7525 c-3 -6 -1 -23 5 -36 8 -22 14 -25 45 -21 36 4 46 21 28
48 -10 16 -73 23 -78 9z"/>
<path d="M6180 7486 c0 -7 -7 -19 -15 -26 -12 -10 -18 -10 -31 1 -15 12 -16
10 -9 -20 6 -29 4 -37 -16 -52 l-24 -19 23 0 c12 0 22 6 22 13 0 7 3 8 8 2 4
-5 17 -16 29 -22 20 -11 25 -8 57 29 20 23 36 45 36 48 0 4 -11 12 -25 18 -14
7 -28 19 -31 27 -8 19 -24 20 -24 1z"/>
<path d="M6380 7450 c0 -5 5 -10 10 -10 6 0 10 5 10 10 0 6 -4 10 -10 10 -5 0
-10 -4 -10 -10z"/>
<path d="M3212 7428 c-1 -10 -6 -18 -10 -18 -4 0 -8 -9 -8 -19 0 -11 3 -18 7
-15 4 2 7 -14 7 -35 1 -30 -4 -41 -21 -49 -20 -10 -20 -11 7 -7 16 2 29 5 30
7 1 2 -1 37 -4 78 -4 41 -7 67 -8 58z"/>
<path d="M1893 7423 c-7 -2 -13 -21 -13 -40 0 -32 2 -35 23 -29 12 3 28 6 35
6 7 0 12 14 12 35 0 30 -3 35 -22 34 -13 0 -29 -3 -35 -6z"/>
<path d="M3145 7390 c-8 -13 5 -13 25 0 13 8 13 10 -2 10 -9 0 -20 -4 -23 -10z"/>
<path d="M3812 7363 c2 -10 12 -19 23 -20 11 -2 14 0 8 3 -7 3 -13 12 -13 20
0 8 -5 14 -11 14 -6 0 -9 -8 -7 -17z"/>
<path d="M3948 7373 c7 -3 16 -2 19 1 4 3 -2 6 -13 5 -11 0 -14 -3 -6 -6z"/>
<path d="M3866 7357 c3 -10 9 -15 12 -12 3 3 0 11 -7 18 -10 9 -11 8 -5 -6z"/>
<path d="M2854 7340 c3 -14 6 -52 7 -85 0 -33 3 -54 6 -47 11 27 32 10 44 -38
7 -29 17 -46 22 -41 5 5 4 16 -2 27 -5 11 -26 62 -46 114 -20 52 -33 84 -31
70z"/>
<path d="M2935 7330 c-3 -5 -1 -18 4 -27 9 -16 10 -14 11 10 0 28 -5 34 -15
17z"/>
<path d="M3158 7333 c6 -2 18 -2 25 0 6 3 1 5 -13 5 -14 0 -19 -2 -12 -5z"/>
<path d="M3310 7330 c8 -5 20 -10 25 -10 6 0 3 5 -5 10 -8 5 -19 10 -25 10 -5
0 -3 -5 5 -10z"/>
<path d="M1923 7317 c-29 -9 -33 -14 -33 -44 0 -34 0 -34 38 -27 20 4 38 8 40
9 1 1 -1 18 -5 36 -8 34 -9 35 -40 26z"/>
<path d="M3006 7278 c-3 -7 -9 -42 -16 -77 -6 -34 -14 -69 -16 -76 -3 -7 3
-15 13 -18 14 -4 14 -5 -4 -6 -13 0 -23 4 -23 9 0 7 -6 7 -19 0 -11 -5 -29
-10 -40 -10 -11 0 -22 -4 -25 -9 -4 -5 10 -5 33 0 24 5 49 5 63 0 20 -8 20
-10 4 -10 -11 -1 -17 -3 -14 -6 8 -8 188 14 221 27 18 7 27 18 27 33 0 20 -3
22 -37 15 -21 -4 -47 -11 -58 -15 l-20 -8 20 17 c19 16 19 16 -6 7 -15 -5 -35
-8 -45 -6 -11 2 -22 4 -26 4 -3 1 -9 27 -12 59 -6 70 -8 82 -13 82 -2 0 -5 -6
-7 -12z"/>
<path d="M5760 7260 c0 -18 4 -29 10 -25 6 3 10 15 10 25 0 10 -4 22 -10 25
-6 4 -10 -7 -10 -25z"/>
<path d="M3097 7253 c-11 -10 -8 -81 3 -88 6 -4 10 13 10 44 0 52 -1 56 -13
44z"/>
<path d="M1906 7213 c-16 -4 -18 -11 -12 -50 3 -25 6 -67 6 -92 0 -61 8 -72
45 -62 26 6 30 12 30 42 0 32 -2 34 -32 31 -27 -3 -33 0 -33 16 0 14 9 21 30
26 28 5 30 8 30 51 0 48 -8 52 -64 38z"/>
<path d="M2852 7142 c-11 -25 -11 -25 4 -10 9 9 15 21 13 27 -2 6 -10 -2 -17
-17z"/>
<path d="M2876 7134 c-9 -23 -8 -24 12 -23 9 0 12 3 5 5 -7 3 -9 12 -6 20 3 8
3 14 0 14 -3 0 -8 -7 -11 -16z"/>
<path d="M2451 7084 c0 -11 3 -14 6 -6 3 7 2 16 -1 19 -3 4 -6 -2 -5 -13z"/>
<path d="M2796 7085 c4 -8 11 -15 16 -15 6 0 5 6 -2 15 -7 8 -14 15 -16 15 -2
0 -1 -7 2 -15z"/>
<path d="M2870 7070 c-11 -7 -4 -10 27 -10 23 0 45 5 48 10 8 13 -55 13 -75 0z"/>
<path d="M3188 7065 c-7 -7 -414 -71 -645 -102 -23 -3 -44 -12 -47 -19 -4 -11
1 -13 19 -8 13 3 30 2 36 -2 22 -13 297 -12 414 2 173 20 265 36 265 45 0 4
-11 6 -25 3 -14 -2 -25 0 -25 6 0 5 9 10 20 10 23 0 26 19 8 39 -11 11 -10 12
2 6 13 -8 13 -7 1 8 -15 19 -16 19 -23 12z"/>
<path d="M2750 7050 c8 -5 24 -10 35 -10 17 0 17 2 5 10 -8 5 -24 10 -35 10
-17 0 -17 -2 -5 -10z"/>
<path d="M2818 7053 c6 -2 18 -2 25 0 6 3 1 5 -13 5 -14 0 -19 -2 -12 -5z"/>
<path d="M2559 7017 c5 -5 19 -7 32 -5 20 3 19 5 -9 9 -20 3 -29 2 -23 -4z"/>
<path d="M2405 6940 c-24 -6 -20 -7 22 -7 29 0 50 4 47 9 -6 9 -26 9 -69 -2z"/>
<path d="M3184 6939 c-11 -4 -52 -12 -93 -18 -59 -9 -76 -9 -83 1 -6 10 -8 9
-8 -3 0 -11 -10 -16 -32 -16 -18 0 -94 -9 -168 -21 -74 -12 -153 -24 -175 -28
-22 -3 -47 -8 -55 -11 -8 -3 -38 -7 -66 -9 -28 -2 -63 -8 -78 -13 -23 -10 -26
-8 -26 13 0 22 5 24 73 31 61 7 67 9 37 14 -22 4 -35 12 -35 21 0 10 -11 16
-30 17 l-30 2 30 -8 30 -8 -30 -5 -30 -5 28 -2 c38 -2 34 -16 -6 -18 -17 -2
-36 -8 -42 -15 -5 -7 -25 -14 -43 -15 -40 -1 -112 -66 -112 -100 0 -18 -6 -23
-26 -23 -15 0 -33 -8 -40 -17 -13 -17 -13 -17 -14 2 0 15 -2 17 -9 6 -5 -8
-11 11 -16 54 -4 37 -9 64 -12 62 -7 -8 16 -231 27 -263 15 -43 63 -73 108
-67 36 4 114 15 467 67 94 14 231 33 305 41 74 9 142 18 150 20 8 2 34 5 58 7
32 1 41 6 37 16 -3 7 -5 27 -5 43 0 26 -3 29 -34 29 -18 0 -58 -5 -87 -10 -30
-6 -97 -17 -149 -25 -95 -13 -496 -71 -557 -79 -26 -4 -33 -1 -33 13 0 14 26
21 173 44 181 29 236 36 462 62 166 20 215 31 215 50 0 29 -12 43 -33 40 -12
-2 -92 -15 -177 -29 -85 -13 -231 -36 -325 -51 -93 -14 -198 -31 -233 -37 -65
-11 -96 -2 -70 19 11 9 127 31 178 34 8 1 67 9 130 19 63 10 171 26 240 35
286 37 283 36 273 60 -7 19 -24 19 -148 0 -55 -8 -181 -26 -280 -40 -99 -14
-193 -28 -210 -31 -72 -13 -168 -35 -175 -39 -12 -7 -21 10 -14 28 5 13 31 19
159 33 17 2 89 12 160 23 72 11 159 22 195 26 56 5 224 29 285 41 26 4 31 43
6 41 -10 0 -27 -4 -37 -8z"/>
<path d="M2112 6905 c0 -16 2 -22 5 -12 2 9 2 23 0 30 -3 6 -5 -1 -5 -18z"/>
<path d="M2285 6920 c-18 -8 -18 -9 5 -9 14 0 34 4 45 9 18 8 18 9 -5 9 -14 0
-34 -4 -45 -9z"/>
<path d="M2645 6909 c-18 -4 6 -6 60 -2 50 3 92 7 94 9 8 7 -124 2 -154 -7z"/>
<path d="M2558 6883 c6 -2 18 -2 25 0 6 3 1 5 -13 5 -14 0 -19 -2 -12 -5z"/>
<path d="M2610 5866 c0 -2 7 -7 16 -10 8 -3 12 -2 9 4 -6 10 -25 14 -25 6z"/>
<path d="M3863 5820 c-24 -10 -43 -23 -43 -28 0 -13 42 -23 54 -13 6 5 28 14
49 20 44 15 50 41 10 41 -16 0 -47 -9 -70 -20z"/>
<path d="M3990 5686 c0 -9 8 -16 18 -16 10 0 22 -4 28 -9 5 -5 83 -43 174 -85
184 -86 208 -98 265 -136 35 -23 43 -24 54 -13 11 12 16 12 29 1 27 -22 75
-41 109 -43 27 -1 19 6 -55 48 -48 27 -143 76 -212 107 -69 32 -170 79 -225
105 -110 52 -185 69 -185 41z"/>
<path d="M3824 5669 c-4 -7 4 -20 17 -30 33 -26 50 -23 19 3 -14 11 -24 25
-22 29 3 13 -6 11 -14 -2z"/>
<path d="M3893 5643 c11 -12 17 -25 14 -30 -3 -4 1 -13 8 -20 10 -10 16 -9 24
1 11 13 5 21 -44 56 -20 14 -20 14 -2 -7z"/>
<path d="M4030 5580 c0 -5 5 -10 10 -10 6 0 10 -6 10 -13 0 -12 277 -157 299
-157 4 0 16 -9 26 -20 10 -11 22 -17 26 -14 5 3 9 1 9 -5 0 -6 19 -16 43 -23
23 -6 46 -17 50 -23 4 -5 6 3 5 20 -3 25 -13 35 -73 68 -38 21 -92 45 -120 55
-27 9 -52 19 -55 22 -8 8 -214 110 -222 110 -5 0 -8 -4 -8 -10z"/>
<path d="M3925 5376 c-18 -13 -17 -16 22 -55 l42 -42 15 -317 c38 -762 35
-725 59 -746 12 -10 43 -29 69 -42 l48 -24 0 52 c0 62 -18 631 -26 834 l-6
140 -54 42 c-30 23 -75 70 -100 104 -25 35 -47 64 -48 65 -1 2 -11 -3 -21 -11z"/>
<path d="M4362 4569 l3 -513 73 -44 c40 -24 75 -43 76 -41 2 2 6 248 9 545 l5
542 -57 6 c-31 4 -69 9 -84 12 l-28 6 3 -513z"/>
<path d="M3378 4462 c-2 -18 -1 -32 3 -32 15 0 19 18 10 41 -8 22 -8 22 -13
-9z"/>
<path d="M3275 4323 c19 -44 17 -74 -6 -99 -47 -50 -128 -18 -115 46 5 28 4
31 -15 25 -11 -4 -30 0 -44 9 -20 13 -23 13 -19 2 3 -8 12 -17 21 -20 12 -5
13 -9 3 -21 -15 -18 -42 -19 -58 -3 -15 15 -15 10 -1 -30 14 -41 125 -123 197
-147 51 -16 127 -30 238 -42 60 -6 119 16 127 49 7 26 -14 70 -64 130 -21 25
-44 59 -50 75 -11 27 -11 27 -19 7 -11 -29 -49 -54 -81 -54 -33 0 -94 41 -93
63 1 9 -5 18 -13 22 -11 4 -13 1 -8 -12z"/>
<path d="M4060 3660 c0 -6 7 -13 15 -17 24 -9 27 1 5 15 -13 8 -20 8 -20 2z"/>
<path d="M3821 3624 c0 -11 3 -14 6 -6 3 7 2 16 -1 19 -3 4 -6 -2 -5 -13z"/>
<path d="M4610 3285 c-7 -9 -11 -17 -9 -20 3 -2 10 5 17 15 14 24 10 26 -8 5z"/>
<path d="M4846 3214 c-9 -25 -7 -34 8 -34 22 0 26 13 11 33 -11 16 -13 16 -19
1z"/>
<path d="M4952 3110 c0 -14 2 -19 5 -12 2 6 2 18 0 25 -3 6 -5 1 -5 -13z"/>
<path d="M4938 3060 c-19 -21 -70 -28 -65 -9 1 6 -4 14 -12 17 -9 3 -11 0 -6
-8 6 -10 4 -12 -8 -7 -12 4 -14 2 -10 -11 5 -14 3 -14 -17 3 l-23 20 7 -28 c8
-35 -18 -83 -51 -92 -16 -4 -37 2 -59 15 -35 22 -43 47 -22 68 23 23 -1 24
-40 2 -32 -18 -43 -20 -60 -11 -28 15 -32 14 -32 -7 0 -11 41 -42 126 -92 206
-122 238 -140 259 -140 23 0 174 100 175 116 0 6 -31 39 -69 73 -46 40 -71 70
-73 87 -3 25 -3 25 -20 4z"/>
<path d="M9163 7655 c-40 -17 -61 -51 -35 -59 20 -6 90 8 103 21 6 6 0 18 -13
30 -21 20 -26 20 -55 8z"/>
<path d="M7146 7405 c-3 -9 -6 -22 -5 -28 0 -7 5 -1 10 12 5 13 8 26 5 28 -2
2 -6 -3 -10 -12z"/>
<path d="M6928 6833 c6 -2 18 -2 25 0 6 3 1 5 -13 5 -14 0 -19 -2 -12 -5z"/>
<path d="M4745 6680 c-3 -5 -2 -10 4 -10 5 0 13 5 16 10 3 6 2 10 -4 10 -5 0
-13 -4 -16 -10z"/>
<path d="M5682 6660 c0 -14 2 -19 5 -12 2 6 2 18 0 25 -3 6 -5 1 -5 -13z"/>
<path d="M8880 6603 c0 -9 50 -42 119 -80 25 -14 75 -42 111 -63 36 -20 90
-51 120 -67 72 -40 232 -133 245 -143 6 -4 30 -10 55 -14 l45 -6 -75 41 c-41
22 -86 48 -100 58 -14 10 -70 42 -125 71 -55 29 -145 79 -200 110 -105 60
-181 100 -190 100 -3 0 -5 -3 -5 -7z"/>
<path d="M9365 6270 c-3 -6 1 -7 9 -4 18 7 21 14 7 14 -6 0 -13 -4 -16 -10z"/>
<path d="M8905 6230 c27 -12 43 -12 25 0 -8 5 -22 9 -30 9 -10 0 -8 -3 5 -9z"/>
<path d="M9295 6220 c-16 -11 -25 -20 -20 -20 10 0 64 39 55 40 -3 0 -18 -9
-35 -20z"/>
<path d="M9350 6179 c0 -5 5 -7 10 -4 6 3 10 8 10 11 0 2 -4 4 -10 4 -5 0 -10
-5 -10 -11z"/>
<path d="M9249 6111 c-12 -21 -13 -28 -4 -27 19 3 47 35 40 46 -10 16 -19 12
-36 -19z"/>
<path d="M9161 6071 c-9 -16 -5 -23 24 -45 33 -25 35 -26 35 -7 0 29 -21 71
-36 71 -7 0 -18 -9 -23 -19z"/>
<path d="M1554 5890 c0 -13 4 -16 10 -10 7 7 7 13 0 20 -6 6 -10 3 -10 -10z"/>
<path d="M1650 6050 c-9 -6 -10 -10 -3 -10 6 0 15 5 18 10 8 12 4 12 -15 0z"/>
<path d="M2080 6013 c8 -3 29 -11 45 -18 56 -25 80 -25 30 -1 -27 14 -59 25
-70 25 -14 -1 -15 -2 -5 -6z"/>
<path d="M1797 5969 c7 -7 15 -10 18 -7 3 3 -2 9 -12 12 -14 6 -15 5 -6 -5z"/>
<path d="M1861 5936 c2 -2 15 -9 29 -15 24 -11 24 -11 6 3 -16 13 -49 24 -35
12z"/>
<path d="M825 5880 c-3 -5 -1 -10 4 -10 6 0 11 5 11 10 0 6 -2 10 -4 10 -3 0
-8 -4 -11 -10z"/>
<path d="M6542 5895 c0 -16 2 -22 5 -12 2 9 2 23 0 30 -3 6 -5 -1 -5 -18z"/>
<path d="M6600 5871 c0 -27 17 -61 30 -61 18 0 10 47 -10 65 -19 18 -20 17
-20 -4z"/>
<path d="M6708 5503 c7 -3 16 -2 19 1 4 3 -2 6 -13 5 -11 0 -14 -3 -6 -6z"/>
<path d="M6431 5244 c0 -11 3 -14 6 -6 3 7 2 16 -1 19 -3 4 -6 -2 -5 -13z"/>
<path d="M6563 5225 c-3 -9 -3 -18 -1 -21 3 -3 8 4 11 16 6 23 -1 27 -10 5z"/>
<path d="M7470 5680 c-8 -5 -10 -10 -5 -10 6 0 17 5 25 10 8 5 11 10 5 10 -5
0 -17 -5 -25 -10z"/>
<path d="M7770 5560 c11 -11 23 -20 27 -20 3 0 -2 9 -12 20 -10 11 -22 20 -27
20 -4 0 1 -9 12 -20z"/>
<path d="M7807 5523 c-3 -5 -1 -17 4 -28 7 -17 8 -17 8 8 1 27 -4 34 -12 20z"/>
<path d="M7786 5455 c-3 -8 -1 -15 4 -15 6 0 10 7 10 15 0 8 -2 15 -4 15 -2 0
-6 -7 -10 -15z"/>
<path d="M7580 5220 c-9 -6 -10 -10 -3 -10 6 0 15 5 18 10 8 12 4 12 -15 0z"/>
<path d="M7518 5193 c6 -2 18 -2 25 0 6 3 1 5 -13 5 -14 0 -19 -2 -12 -5z"/>
<path d="M7190 4942 c0 -5 11 -14 25 -20 14 -6 25 -10 25 -8 0 2 -11 11 -25
20 -14 9 -25 13 -25 8z"/>
<path d="M1136 3539 c-14 -11 -26 -24 -26 -28 0 -4 20 -17 44 -28 l44 -22 21
23 c29 31 27 40 -14 59 -44 21 -37 21 -69 -4z"/>
<path d="M1246 3467 l-29 -23 55 -27 c30 -15 59 -27 65 -27 11 0 48 38 42 43
-70 55 -98 62 -133 34z"/>
<path d="M1391 3388 l-23 -21 23 -18 c30 -23 58 -24 87 -3 31 21 28 29 -18 48
-49 20 -42 20 -69 -6z"/>
<path d="M1500 3324 c-35 -30 -34 -33 15 -50 31 -10 38 -9 60 8 32 25 31 30
-4 51 -37 21 -34 22 -71 -9z"/>
<path d="M1601 3259 c-13 -11 -22 -21 -20 -23 9 -8 111 -57 113 -54 0 2 10 14
21 28 11 14 13 19 5 13 -22 -20 -35 -15 -16 6 16 18 16 20 -6 35 -30 21 -68
20 -97 -5z"/>
<path d="M1736 3199 c-14 -11 -26 -24 -26 -27 0 -4 20 -18 45 -31 l45 -24 25
23 c14 13 25 26 25 30 0 3 -20 16 -44 28 l-45 21 -25 -20z"/>
<path d="M1880 3130 c-8 -5 -17 -7 -21 -4 -4 2 -12 -3 -19 -11 -9 -11 -2 -19
41 -41 50 -25 53 -25 66 -8 7 10 13 23 13 30 0 25 -55 50 -80 34z"/>
<path d="M1976 3058 l-28 -21 23 -13 c34 -19 53 -17 75 7 18 20 18 21 -1 35
-25 19 -35 17 -69 -8z"/>
<path d="M2058 3005 c-16 -13 -28 -26 -28 -29 0 -5 59 -26 74 -26 6 1 22 10
36 21 l24 21 -24 19 c-33 24 -49 23 -82 -6z"/>
<path d="M2159 2946 l-27 -23 56 -27 55 -27 21 22 21 22 -27 -16 c-33 -21 -36
-12 -7 19 l21 22 -30 16 c-41 21 -52 20 -83 -8z"/>
<path d="M2282 2877 l-21 -23 44 -24 45 -25 22 23 23 23 -30 25 c-37 30 -56
30 -83 1z"/>
<path d="M2386 2811 c-15 -17 -13 -19 39 -46 45 -22 58 -25 70 -15 35 29 6 66
-59 74 -24 4 -39 0 -50 -13z"/>
<path d="M2530 2739 c-9 -15 -8 -24 1 -35 17 -21 73 -18 93 5 17 19 17 20 -13
35 -41 22 -68 20 -81 -5z"/>
<path d="M2627 2675 l-28 -25 23 -9 c57 -21 65 -21 89 -1 l24 20 -25 20 c-33
26 -49 25 -83 -5z"/>
<path d="M2737 2617 l-28 -22 47 -24 48 -23 24 28 24 27 -24 18 c-31 25 -57
23 -91 -4z"/>
<path d="M2515 2590 c-3 -6 1 -7 9 -4 18 7 21 14 7 14 -6 0 -13 -4 -16 -10z"/>
<path d="M2851 2556 l-22 -23 37 -22 37 -22 26 26 26 26 -25 19 c-33 26 -52
25 -79 -4z"/>
<path d="M2430 2516 c0 -2 7 -7 16 -10 8 -3 12 -2 9 4 -6 10 -25 14 -25 6z"/>
<path d="M2951 2496 l-23 -25 37 -15 c50 -21 59 -20 75 9 16 30 7 42 -35 51
-24 4 -35 0 -54 -20z"/>
<path d="M2414 2495 c11 -8 24 -15 30 -15 5 0 1 7 -10 15 -10 8 -23 14 -29 14
-5 0 -1 -6 9 -14z"/>
<path d="M3158 2382 c-16 -10 -28 -19 -28 -22 0 -3 24 -15 52 -28 l52 -23 24
24 24 24 -35 22 c-40 25 -52 25 -89 3z"/>
<path d="M3287 2312 c-24 -27 -22 -31 29 -53 44 -20 46 -20 59 -2 20 26 18 40
-7 57 -30 21 -61 20 -81 -2z"/>
<path d="M3416 2249 c-14 -11 -26 -24 -26 -28 0 -4 19 -16 41 -27 l41 -18 20
24 c19 23 19 25 1 38 -41 31 -50 32 -77 11z"/>
<path d="M3515 2180 c-21 -23 -21 -22 24 -45 34 -17 35 -17 52 6 24 31 24 34
-6 47 -36 17 -49 15 -70 -8z"/>
<path d="M3713 2069 c-18 -12 -33 -23 -33 -25 0 -2 21 -14 48 -28 l47 -24 18
24 c20 27 21 38 5 52 -27 21 -54 21 -85 1z"/>
<path d="M3804 1998 l-19 -23 24 20 24 20 -11 -22 c-11 -19 -8 -24 25 -43 l36
-21 30 30 30 29 -38 16 c-51 22 -78 20 -101 -6z"/>
<path d="M3940 1935 c-25 -26 -21 -38 16 -49 20 -6 74 25 74 43 0 8 -44 31
-59 31 -4 0 -18 -11 -31 -25z"/>
<path d="M4031 1876 c-23 -24 -23 -24 -3 -35 31 -16 57 -13 77 9 21 23 14 35
-25 45 -19 5 -31 0 -49 -19z"/>
<path d="M4223 1773 c-13 -8 -23 -19 -23 -23 0 -5 20 -19 44 -33 l44 -25 27
28 27 28 -40 21 c-48 25 -50 25 -79 4z"/>
<path d="M4340 1695 c-13 -14 -22 -26 -19 -28 2 -1 21 -11 43 -20 36 -17 40
-17 57 -1 26 24 24 37 -10 57 -38 22 -43 22 -71 -8z"/>
<path d="M4450 1635 c-26 -28 -27 -26 19 -50 33 -17 34 -17 60 9 l26 27 -25
19 c-33 26 -52 25 -80 -5z"/>
<path d="M4547 1577 l-29 -22 40 -22 39 -22 27 28 28 29 -30 16 c-40 20 -42
20 -75 -7z"/>
<path d="M4637 1522 l-28 -29 42 -18 c37 -17 44 -17 67 -4 39 22 37 36 -7 58
-22 12 -42 21 -44 21 -2 0 -15 -13 -30 -28z"/>
<path d="M4527 1509 c7 -7 15 -10 18 -7 3 3 -2 9 -12 12 -14 6 -15 5 -6 -5z"/>
<path d="M4748 1462 c-16 -10 -28 -19 -28 -22 0 -3 29 -20 64 -39 l63 -35 30
25 29 24 -53 33 c-61 36 -67 37 -105 14z"/>
<path d="M4895 1374 c-16 -8 -31 -17 -33 -19 -6 -5 95 -55 111 -55 7 0 23 10
35 23 l22 23 -39 22 c-46 26 -57 27 -96 6z"/>
<path d="M5022 1303 c-20 -25 -20 -27 -4 -38 37 -26 59 -26 88 -2 l28 24 -42
22 c-22 11 -43 21 -45 21 -2 0 -13 -12 -25 -27z"/>
<path d="M6512 1860 c0 -14 2 -19 5 -12 2 6 2 18 0 25 -3 6 -5 1 -5 -13z"/>
<path d="M6501 1814 c0 -11 3 -14 6 -6 3 7 2 16 -1 19 -3 4 -6 -2 -5 -13z"/>
<path d="M2143 1718 c-15 -20 -25 -38 -20 -38 3 0 12 11 21 25 17 26 16 35 -1
13z"/>
<path d="M2440 1621 c0 -5 7 -12 16 -15 14 -5 15 -4 4 9 -14 17 -20 19 -20 6z"/>
</g>
</svg>
